<?xml version="1.0" standalone="no"?>
<!DOCTYPE svg PUBLIC "-//W3C//DTD SVG 20010904//EN"
 "http://www.w3.org/TR/2001/REC-SVG-20010904/DTD/svg10.dtd">
<svg version="1.0" xmlns="http://www.w3.org/2000/svg"
 width="617.000000pt" height="617.000000pt" viewBox="0 0 617.000000 617.000000"
 preserveAspectRatio="xMidYMid meet">
<metadata>
Created by potrace 1.14, written by Peter Selinger 2001-2017
</metadata>
<g transform="translate(0.000000,617.000000) scale(0.100000,-0.100000)"
fill="#000000" stroke="none">
<path d="M2100 5906 c0 -7 -17 -10 -45 -8 -26 3 -45 0 -45 -6 0 -6 4 -12 10
-14 5 -1 -20 -4 -56 -5 -42 -1 -71 -7 -82 -16 -11 -10 -27 -13 -46 -10 -20 4
-31 1 -38 -11 -11 -19 -34 -21 -41 -3 -4 10 -6 10 -6 0 -1 -16 -43 -17 -59 -1
-9 9 -12 8 -12 -4 0 -12 -9 -16 -29 -16 -44 1 -144 -38 -135 -54 3 -4 15 -8
27 -9 21 0 21 -1 -2 -10 -16 -6 -28 -6 -34 0 -6 6 -17 1 -31 -13 -15 -16 -31
-23 -54 -21 -18 1 -35 -2 -38 -7 -3 -4 1 -8 8 -8 10 0 9 -3 -2 -10 -16 -10
-15 -11 15 -29 19 -12 19 -12 -4 -7 -14 3 -31 0 -38 -5 -7 -6 -18 -9 -25 -6
-8 4 -4 8 10 13 22 6 26 24 6 31 -18 6 -64 -44 -58 -61 3 -9 1 -16 -5 -16 -6
0 -11 -9 -11 -21 0 -11 -4 -18 -10 -14 -5 3 -6 13 -3 21 5 13 3 14 -13 6 -10
-6 -28 -18 -39 -27 -20 -16 -20 -16 2 -6 39 20 35 12 -27 -48 -38 -37 -56 -61
-48 -64 8 -3 -2 -19 -30 -46 -24 -22 -39 -41 -35 -41 4 0 22 14 40 32 25 24
33 28 33 15 0 -9 -7 -17 -15 -17 -14 0 -75 -79 -75 -98 0 -5 -7 -23 -15 -39
-9 -17 -17 -51 -20 -76 -6 -63 -8 -70 -24 -86 -8 -9 -11 -27 -7 -50 4 -25 1
-40 -11 -53 -9 -10 -12 -18 -7 -18 5 0 8 -18 8 -40 -1 -22 2 -40 7 -40 6 0 5
-8 -1 -19 -16 -30 -13 -51 7 -44 12 5 14 3 8 -8 -12 -18 -14 -49 -4 -49 5 0 5
-7 2 -17 -4 -10 -2 -14 5 -9 18 11 26 -16 8 -30 -16 -11 -16 -13 3 -19 13 -4
18 -11 14 -18 -12 -19 -9 -59 4 -64 7 -3 13 -9 13 -15 0 -5 -4 -7 -8 -4 -5 3
-9 -1 -9 -9 0 -8 2 -13 5 -10 7 7 42 -66 42 -88 0 -12 -4 -16 -12 -11 -7 4 -3
-3 9 -15 25 -23 29 -37 13 -43 -10 -3 7 -62 34 -113 9 -16 16 -36 16 -42 0 -7
5 -13 10 -13 6 0 10 -6 10 -12 1 -7 9 -31 20 -53 11 -22 19 -48 20 -58 0 -10
7 -25 15 -33 8 -8 12 -21 9 -29 -4 -8 -1 -15 5 -15 6 0 11 -6 11 -14 0 -7 9
-25 21 -40 14 -17 18 -33 13 -44 -14 -32 -20 -140 -8 -135 7 2 15 20 19 39 5
30 9 33 21 24 8 -7 14 -19 14 -26 0 -16 16 -19 25 -4 3 5 -8 63 -24 127 -17
65 -35 149 -41 187 -6 39 -24 99 -41 134 -16 35 -29 69 -29 75 0 7 -7 23 -17
36 -18 27 -42 128 -43 183 0 41 11 52 55 55 61 4 156 23 185 38 18 9 51 14 89
12 34 -1 61 1 61 5 0 3 19 5 43 4 23 -2 55 1 71 6 18 4 32 4 36 -2 3 -5 11 -5
20 0 8 6 28 10 43 10 16 0 38 5 50 12 12 7 28 13 36 14 8 2 40 30 72 63 32 34
63 61 69 61 6 0 8 5 5 10 -3 6 2 10 12 10 11 0 24 5 31 12 6 6 18 13 26 14 7
1 46 18 85 38 40 20 81 36 92 36 10 0 19 5 19 11 0 5 5 7 10 4 6 -3 13 1 16 9
3 9 21 18 40 22 19 3 31 10 28 15 -3 5 -1 9 5 9 6 0 8 7 5 15 -5 11 -2 13 12
8 13 -5 16 -3 11 10 -6 16 8 23 36 18 4 0 7 4 7 11 0 9 3 9 12 0 19 -19 38
-14 48 13 8 20 16 25 45 25 19 0 35 -4 35 -8 0 -10 60 -45 60 -35 0 4 6 -3 13
-17 7 -14 23 -26 37 -28 26 -4 60 -29 60 -44 0 -5 12 -26 28 -46 15 -20 21
-32 14 -28 -11 7 -12 4 -3 -13 7 -11 17 -20 24 -18 7 1 11 -6 11 -15 -1 -10 4
-18 11 -18 7 0 16 -7 19 -16 10 -25 7 -36 -6 -29 -7 4 -4 -1 7 -10 11 -9 19
-21 17 -27 -1 -5 2 -16 8 -22 5 -7 7 -16 3 -19 -3 -4 -1 -7 5 -7 7 0 12 -7 12
-15 0 -24 32 -56 45 -45 8 7 12 5 12 -5 0 -8 -4 -12 -9 -9 -13 8 -9 -8 12 -46
11 -19 19 -30 20 -23 0 7 7 10 16 6 10 -4 14 -14 12 -27 -3 -12 2 -28 9 -35
10 -9 11 -17 4 -25 -7 -8 -5 -22 6 -44 15 -31 15 -35 -4 -60 -16 -21 -39 -32
-109 -50 -49 -13 -141 -40 -204 -62 -63 -21 -107 -33 -96 -27 10 7 32 22 50
34 17 13 51 36 76 53 25 16 42 30 38 31 -5 1 -14 2 -20 3 -7 1 -12 7 -11 13 3
13 -108 6 -117 -7 -3 -4 -23 -13 -45 -21 -55 -18 -251 -148 -266 -176 -7 -12
-16 -20 -21 -17 -4 3 -8 -2 -8 -10 0 -9 -4 -15 -8 -14 -4 2 -22 -13 -40 -33
-23 -26 -30 -43 -27 -62 3 -14 1 -29 -5 -32 -22 -13 -10 -32 18 -27 24 4 25 3
11 -9 -20 -17 -32 -60 -16 -57 7 1 29 -9 49 -21 27 -16 41 -34 48 -59 7 -26
24 -48 56 -72 47 -35 96 -65 59 -35 -91 72 -130 136 -122 198 8 55 18 63 67
48 22 -6 40 -16 40 -20 0 -14 59 -31 104 -31 23 0 59 9 81 20 22 11 45 20 52
20 6 0 15 5 18 11 4 6 1 10 -6 8 -25 -3 -39 1 -39 11 0 6 7 10 15 10 8 0 15 4
15 9 0 5 13 12 29 16 36 8 50 35 18 35 -20 1 -20 2 -5 13 36 26 85 52 118 62
64 20 43 73 -30 75 -34 1 -34 2 -10 11 60 24 125 -13 167 -94 24 -46 27 -64
28 -149 0 -60 3 -91 9 -81 9 16 2 157 -9 205 -6 21 -3 27 14 33 17 5 21 14 21
47 0 23 5 56 11 73 10 26 9 38 -4 63 -14 28 -14 32 1 44 8 7 44 51 78 98 35
47 69 91 75 98 6 8 8 25 3 45 -4 18 -8 34 -9 37 -22 96 -30 122 -37 126 -4 3
-8 18 -8 33 0 15 -4 31 -8 37 -5 5 -17 36 -27 69 -11 33 -28 72 -38 88 -10 15
-16 27 -12 27 3 0 -5 15 -19 33 -28 36 -33 53 -15 41 7 -4 10 -1 7 7 -3 8 -16
13 -29 12 -22 -3 -23 -2 -6 11 21 16 21 14 -5 72 -12 27 -21 53 -20 57 1 4 -9
18 -23 31 -16 15 -25 34 -25 54 0 19 -6 32 -17 36 -12 5 -13 10 -5 18 8 8 6
17 -11 32 -27 25 -41 56 -26 56 6 0 4 7 -5 15 -8 8 -19 15 -24 15 -6 0 -15 14
-21 31 -6 17 -15 28 -21 24 -10 -6 -14 7 -11 32 1 6 -17 14 -39 18 -40 7 -51
19 -27 28 6 3 -1 6 -16 6 -19 1 -26 5 -21 12 5 8 -1 10 -20 7 -21 -4 -24 -3
-15 8 9 11 7 14 -12 15 -13 1 -29 1 -35 0 -7 -1 -14 9 -18 22 -4 19 -11 24
-32 21 -34 -3 -56 5 -50 21 2 6 0 18 -5 26 -7 11 -9 11 -9 -3 0 -26 -15 -22
-49 11 -21 20 -37 28 -51 24 -11 -3 -20 -9 -20 -14 0 -18 -18 -8 -25 14 l-7
22 -7 -24 -7 -24 -18 27 c-9 15 -20 25 -23 22 -4 -3 -13 0 -21 6 -25 21 -112
32 -112 14z m84 -35 c-7 -9 -34 10 -34 24 0 13 3 12 18 -2 10 -10 17 -20 16
-22z m-236 -28 c-10 -2 -26 -2 -35 0 -10 3 -2 5 17 5 19 0 27 -2 18 -5z m-101
-19 c-3 -3 -12 -4 -19 -1 -8 3 -5 6 6 6 11 1 17 -2 13 -5z m58 -4 c3 -5 1 -10
-4 -10 -6 0 -11 5 -11 10 0 6 2 10 4 10 3 0 8 -4 11 -10z m-145 -15 c0 -17
-16 -35 -31 -35 -30 0 -24 35 6 36 14 1 25 0 25 -1z m-142 -41 c-17 -17 -63
-7 -48 11 6 7 22 10 36 7 21 -4 23 -7 12 -18z m-38 -80 c0 -2 -19 -4 -42 -3
-35 1 -38 2 -18 8 23 7 60 4 60 -5z m-130 -14 c8 -5 11 -10 5 -10 -5 0 -17 5
-25 10 -8 5 -10 10 -5 10 6 0 17 -5 25 -10z m-392 -450 c-7 -10 -14 -18 -15
-16 -6 6 9 36 18 36 5 0 4 -9 -3 -20z m1402 -75 c20 -24 6 -28 -15 -5 -10 11
-13 20 -8 20 6 0 16 -7 23 -15z m-1449 -88 c-10 -9 -11 -8 -5 6 3 10 9 15 12
12 3 -3 0 -11 -7 -18z m1899 -313 c0 -8 -4 -12 -10 -9 -5 3 -10 10 -10 16 0 5
5 9 10 9 6 0 10 -7 10 -16z m160 -14 c0 -5 -2 -10 -4 -10 -3 0 -8 5 -11 10 -3
6 -1 10 4 10 6 0 11 -4 11 -10z m4 -45 c-4 -8 -11 -15 -16 -15 -6 0 -5 6 2 15
7 8 14 15 16 15 2 0 1 -7 -2 -15z m-44 -81 c0 -8 5 -14 10 -14 6 0 10 -5 10
-11 0 -5 -4 -7 -10 -4 -5 3 -10 -1 -10 -9 0 -9 -4 -16 -10 -16 -11 0 -11 0
-14 52 -2 31 0 36 11 27 7 -6 13 -18 13 -25z m51 21 c-1 -15 -24 -12 -29 3 -3
9 2 13 12 10 10 -1 17 -7 17 -13z m-141 -302 c-8 -3 -24 -10 -35 -15 -20 -9
-20 -9 -1 6 11 9 27 16 35 15 14 0 14 -1 1 -6z m-287 -208 c-2 -7 -15 -11 -29
-9 -31 3 -42 12 -28 22 6 4 14 16 18 27 7 19 8 19 26 -4 10 -14 16 -30 13 -36z"/>
<path d="M2255 5904 c9 -9 19 -13 23 -10 3 4 0 11 -8 16 -24 15 -33 11 -15 -6z"/>
<path d="M1438 5753 c6 -2 18 -2 25 0 6 3 1 5 -13 5 -14 0 -19 -2 -12 -5z"/>
<path d="M3315 4630 c-4 -6 -1 -18 6 -26 14 -17 31 0 22 23 -6 16 -19 17 -28
3z"/>
<path d="M3121 4514 c0 -11 3 -14 6 -6 3 7 2 16 -1 19 -3 4 -6 -2 -5 -13z"/>
<path d="M2775 4430 c-16 -7 -17 -9 -3 -9 9 -1 20 4 23 9 7 11 7 11 -20 0z"/>
<path d="M3010 4380 c0 -5 5 -10 11 -10 5 0 7 5 4 10 -3 6 -8 10 -11 10 -2 0
-4 -4 -4 -10z"/>
<path d="M3200 4349 c0 -5 5 -7 10 -4 6 3 10 8 10 11 0 2 -4 4 -10 4 -5 0 -10
-5 -10 -11z"/>
<path d="M1500 4070 c-42 -8 -100 -37 -100 -50 0 -6 -6 -9 -12 -7 -9 1 -12 -8
-9 -28 4 -42 10 -48 39 -42 32 6 76 -9 67 -23 -3 -5 0 -10 7 -11 7 0 -18 -12
-56 -26 -39 -15 -64 -29 -57 -31 7 -2 -24 -19 -69 -37 -44 -18 -83 -35 -86
-38 -19 -18 93 -135 150 -156 13 -6 49 -43 79 -84 41 -56 67 -80 104 -98 92
-45 244 -34 364 27 36 18 47 20 43 9 -4 -8 -15 -15 -25 -15 -11 0 -19 -7 -19
-16 0 -8 5 -12 11 -9 6 4 5 -2 -2 -14 -10 -15 -16 -17 -22 -8 -6 8 -7 6 -3 -6
3 -10 3 -29 0 -43 -7 -26 -51 -43 -114 -45 -19 0 -29 -3 -22 -6 19 -8 14 -23
-8 -23 -13 0 -20 -7 -20 -20 0 -11 4 -20 8 -20 5 0 15 -11 22 -25 7 -13 17
-22 22 -19 5 3 12 -3 15 -15 3 -12 9 -21 14 -21 12 0 49 -38 49 -50 0 -22 75
-100 96 -100 8 0 14 -4 14 -8 0 -9 58 -70 90 -94 18 -13 28 -15 43 -7 13 7 22
8 26 1 4 -6 12 -4 20 6 13 14 11 15 -22 9 -22 -3 -39 -1 -43 5 -4 6 -3 8 3 5
5 -3 21 0 36 8 15 8 27 10 27 4 0 -5 15 -9 33 -10 30 -1 30 -1 7 -8 -25 -7
-24 -8 8 -15 18 -4 30 -12 26 -17 -3 -5 3 -9 13 -9 10 0 32 -8 48 -17 35 -20
187 -23 247 -6 30 9 38 8 42 -4 8 -21 28 -5 21 17 -4 13 4 24 30 40 28 17 35
28 35 54 0 36 -31 76 -59 76 -11 0 -43 -11 -73 -25 -29 -14 -63 -25 -75 -25
-15 0 -21 -5 -17 -14 3 -7 -2 -16 -10 -19 -9 -4 -15 -1 -13 6 1 7 -6 11 -15 9
-22 -4 -116 24 -134 39 -8 6 -21 9 -29 5 -9 -3 -15 0 -15 8 0 22 26 26 77 11
57 -17 160 -11 193 10 8 6 22 14 31 20 46 28 128 87 157 114 18 17 44 34 58
37 28 7 50 39 34 49 -5 3 -33 0 -62 -9 -84 -23 -191 -46 -213 -46 -11 0 -45
-9 -75 -20 -66 -24 -314 -37 -355 -18 -21 10 -29 8 -48 -10 -13 -12 -28 -22
-34 -22 -26 0 -24 53 4 96 7 11 10 24 6 27 -3 4 2 16 12 27 10 11 15 20 10 20
-4 0 -2 6 4 13 6 8 8 17 4 20 -3 4 0 14 8 23 9 11 13 37 11 78 -3 51 1 67 18
89 21 26 21 57 1 57 -5 0 -17 -10 -25 -22 -18 -25 -21 -12 -6 26 5 14 16 26
24 26 19 0 25 29 27 140 1 52 7 112 14 132 13 38 13 38 -14 33 -14 -3 -1 5 29
17 32 13 48 24 38 26 -9 2 -26 -2 -37 -7 -11 -6 -32 -11 -48 -11 l-28 1 35 20
c19 10 28 18 20 17 -8 0 -37 8 -63 20 -27 12 -55 22 -63 22 -7 0 -36 9 -64 19
-41 16 -50 17 -50 5 0 -13 -4 -13 -27 -1 -30 15 -265 20 -333 7z m530 -120
c-20 -13 -33 -13 -25 0 3 6 14 10 23 10 15 0 15 -2 2 -10z m-549 -134 c-10
-11 -10 -20 -1 -37 10 -18 18 -21 54 -16 26 4 50 1 66 -8 14 -8 19 -14 13 -15
-7 0 -13 -7 -13 -16 0 -8 5 -12 10 -9 6 3 10 -3 10 -14 0 -17 6 -21 33 -21 60
0 197 48 281 99 44 27 86 46 91 43 6 -4 2 -8 -7 -10 -22 -4 -24 -30 -3 -38 8
-4 15 -12 15 -20 0 -8 6 -14 13 -15 10 0 10 -2 0 -6 -7 -2 -13 -11 -13 -19 0
-9 5 -12 11 -8 32 19 -24 -142 -64 -184 -50 -54 -186 -102 -287 -102 -84 0
-141 24 -193 79 -111 118 -135 262 -53 312 37 22 53 25 37 5z m-151 -56 c-34
-11 -60 -11 -35 0 11 5 29 8 40 8 16 0 15 -2 -5 -8z m737 -102 c-3 -7 -5 -2
-5 12 0 14 2 19 5 13 2 -7 2 -19 0 -25z m88 -648 c10 17 21 12 34 -17 11 -23
10 -25 -3 -14 -9 7 -21 9 -28 5 -19 -12 -50 -15 -43 -5 3 5 0 13 -6 17 -8 5
-7 9 2 15 7 4 19 3 25 -2 8 -7 14 -6 19 1z"/>
<path d="M1410 3756 c0 -8 4 -17 9 -20 5 -4 7 3 4 14 -6 23 -13 26 -13 6z"/>
<path d="M3874 3990 c-18 -4 -53 -19 -78 -33 -26 -14 -44 -21 -40 -16 4 7 -5
9 -22 6 -59 -10 -180 -39 -207 -49 -41 -16 -46 -1 -6 17 l34 16 -40 -7 c-22
-4 -51 -7 -64 -7 -18 1 -20 -1 -10 -8 11 -7 9 -10 -8 -15 -13 -4 -23 -11 -22
-18 0 -6 22 -45 49 -86 166 -255 163 -249 144 -278 -17 -26 -107 -135 -147
-177 -17 -18 -32 -41 -113 -165 -16 -25 -33 -48 -39 -50 -30 -11 -64 -38 -57
-46 4 -4 0 -3 -9 4 -9 6 -19 9 -22 5 -10 -10 -8 6 3 26 5 10 12 33 15 51 3 17
17 55 30 83 14 29 17 41 8 27 -29 -40 -95 -110 -104 -110 -18 0 -8 43 27 113
40 77 21 76 -23 -2 -14 -25 -45 -75 -68 -111 -23 -36 -64 -101 -91 -145 -26
-44 -77 -110 -112 -147 -107 -112 -214 -151 -447 -163 -52 -2 -132 26 -152 54
-9 14 -23 21 -37 19 -12 -1 -34 5 -49 15 -14 9 -31 17 -37 17 -5 0 -20 9 -32
21 -13 11 -34 30 -48 43 -14 12 -38 28 -53 36 -15 8 -56 39 -90 69 -34 30 -53
45 -42 32 26 -31 161 -150 151 -133 -4 6 -2 12 3 12 6 0 11 -3 11 -6 0 -14
-42 -74 -51 -74 -14 0 -61 -57 -76 -91 -12 -29 -35 -45 -74 -53 -99 -18 -254
-70 -255 -85 -3 -24 -5 -25 -14 -11 -5 8 -10 11 -11 5 -3 -32 -8 -55 -23 -94
-26 -71 -21 -172 15 -271 41 -116 40 -110 28 -235 -6 -60 -13 -126 -14 -145
-13 -170 -19 -197 -34 -172 -12 20 -38 4 -50 -30 -8 -23 -7 -36 4 -59 12 -21
12 -27 2 -24 -9 4 -12 -7 -12 -40 0 -25 2 -45 5 -45 3 0 5 -39 6 -86 1 -57 5
-89 14 -94 8 -5 10 -22 7 -51 -3 -24 -6 -50 -6 -56 -1 -7 -12 -13 -25 -13 -29
0 -46 -19 -19 -21 10 -1 24 -1 31 0 13 2 16 -18 4 -35 -4 -6 -22 -15 -41 -19
-53 -11 -105 -36 -95 -44 5 -5 68 -49 139 -98 420 -291 910 -533 1410 -697
318 -104 503 -147 840 -196 243 -35 343 -42 413 -31 34 5 55 4 59 -2 4 -6 53
-8 137 -3 559 28 942 208 1216 574 114 152 262 450 244 491 -4 9 -6 20 -5 24
1 5 -4 36 -10 68 -11 56 -23 78 -36 66 -5 -6 -33 -209 -35 -259 -1 -15 -4 -26
-7 -26 -12 4 -51 -14 -51 -22 0 -13 -55 -40 -80 -40 -11 0 -34 9 -49 21 -35
26 -32 46 15 91 30 29 34 39 33 83 -2 77 -9 107 -25 101 -11 -4 -34 21 -39 44
-1 3 -7 18 -13 33 -7 16 -10 32 -7 36 2 5 -2 17 -10 27 -8 10 -15 15 -16 9 -2
-23 -7 -52 -12 -75 -3 -14 -8 -42 -12 -63 -5 -27 -12 -37 -21 -33 -8 3 -14 1
-14 -4 0 -6 5 -10 12 -10 6 0 3 -7 -8 -16 -10 -8 -12 -12 -4 -8 11 5 12 4 4
-5 -16 -18 -64 -3 -64 19 0 10 -6 20 -12 23 -10 3 -10 7 -2 18 6 8 9 34 7 59
-2 25 -4 123 -5 218 0 94 -3 170 -8 167 -4 -2 -10 -48 -14 -102 -7 -93 -28
-208 -41 -221 -3 -3 -3 38 0 91 5 79 3 101 -10 121 -9 14 -14 30 -11 35 8 13
-35 53 -51 47 -16 -6 -7 18 24 64 l23 34 -22 23 c-12 13 -30 23 -40 23 -10 0
-18 5 -18 11 0 5 4 8 9 5 5 -4 13 8 16 26 5 21 4 33 -4 36 -6 2 -11 8 -11 14
0 5 -6 16 -14 24 -8 8 -12 23 -9 36 5 17 3 20 -11 15 -10 -4 -26 -2 -37 3 -15
9 -19 7 -20 -7 -2 -39 -11 -82 -36 -167 -4 -15 -2 -18 13 -12 16 6 17 5 6 -6
-11 -11 -16 -10 -28 7 -12 16 -16 17 -23 6 -7 -11 -9 -11 -14 0 -5 12 -7 12
-15 0 -8 -11 -11 -10 -15 5 -4 16 -5 16 -6 2 -1 -12 -6 -15 -17 -11 -12 4 -13
7 -3 14 11 6 10 9 -4 14 -15 6 -15 9 -2 22 9 8 13 19 10 24 -9 14 -25 11 -25
-4 0 -8 -18 -28 -39 -45 -42 -33 -57 -40 -45 -20 4 7 9 22 10 34 1 12 12 42
24 68 11 26 18 51 15 56 -3 6 0 10 7 10 9 0 10 2 1 8 -7 5 -9 20 -4 48 6 32 4
46 -11 64 -14 18 -18 19 -18 6 0 -10 -4 -14 -10 -11 -5 3 -10 -2 -11 -12 0
-16 -1 -16 -9 2 -6 14 -9 15 -9 5 -1 -17 -58 -43 -66 -30 -6 10 5 43 17 51 5
3 11 29 14 57 4 47 3 52 -15 52 -20 0 -51 -44 -51 -72 0 -39 -22 -86 -46 -97
-21 -9 -31 -8 -57 6 -39 22 -57 38 -57 52 0 6 -3 12 -7 12 -5 1 -21 3 -38 5
-16 2 -40 6 -53 9 -21 5 -22 7 -7 35 30 57 15 79 -24 34 -16 -19 -27 -23 -44
-18 -12 4 -24 10 -27 15 -3 4 -21 10 -40 12 -19 3 -60 12 -91 20 -31 8 -87 18
-125 21 l-69 5 80 -13 c77 -13 117 -25 160 -46 11 -6 47 -21 80 -33 63 -24 88
-57 43 -57 -32 1 -100 34 -91 45 5 4 3 5 -4 1 -6 -3 -31 0 -55 8 -67 21 -123
28 -253 31 -110 2 -137 -1 -222 -29 -19 -6 -24 -2 -37 41 -8 26 -26 80 -40
118 -29 80 -32 112 -10 140 11 15 18 17 32 9 13 -9 19 -7 27 10 20 40 201 105
335 119 83 9 546 -11 600 -26 70 -19 162 -61 214 -96 23 -15 67 -45 98 -66 32
-21 65 -50 74 -64 9 -14 28 -38 42 -53 16 -17 25 -39 25 -58 0 -22 4 -29 14
-26 7 3 13 -1 13 -10 0 -9 9 -18 21 -21 16 -5 20 -12 17 -34 -3 -20 0 -29 9
-29 8 0 11 -5 8 -10 -4 -6 -11 -8 -16 -5 -5 4 -9 1 -9 -4 0 -24 45 -5 57 24 6
17 12 24 12 17 1 -7 6 -10 12 -6 6 3 14 2 18 -4 9 -15 46 -19 43 -4 -1 6 0 12
2 12 7 0 76 -110 106 -171 58 -115 100 -179 120 -179 32 0 120 120 120 164 0
8 4 16 10 18 5 2 12 19 15 38 l6 35 -13 -29 c-12 -26 -13 -18 -10 75 3 88 0
110 -16 142 -12 23 -16 37 -8 37 6 0 12 14 13 30 1 18 -2 28 -7 25 -6 -4 -11
-16 -11 -28 -1 -12 -11 17 -23 64 -11 47 -34 116 -51 152 -24 53 -35 67 -52
67 -13 0 -39 17 -60 40 -23 24 -51 42 -71 46 -18 4 -38 14 -45 23 -26 35 -89
81 -111 81 -13 0 -34 -9 -48 -19 -17 -14 -34 -18 -60 -15 -45 7 -55 -14 -27
-60 l20 -34 -31 -7 c-21 -5 -42 -1 -69 13 -21 11 -54 22 -73 25 -20 2 -42 8
-49 13 -8 4 -61 11 -119 15 -58 4 -145 13 -193 19 -48 6 -118 9 -155 7 -107
-8 -241 -26 -260 -36 -9 -5 -37 -12 -62 -16 -65 -9 -219 -51 -337 -92 -57 -19
-107 -32 -113 -28 -14 9 0 35 20 35 9 0 28 8 41 19 13 10 56 35 94 56 108 59
123 82 49 71 -25 -3 -68 -17 -95 -31 -51 -25 -64 -22 -28 8 11 10 18 21 15 24
-3 4 -16 -3 -29 -14 -12 -11 -35 -23 -52 -27 -64 -13 -102 -18 -145 -18 -25 0
-64 -7 -88 -15 -32 -12 -46 -13 -54 -5 -9 9 -6 12 11 12 31 0 63 19 55 32 -4
7 -3 8 4 4 7 -4 23 1 37 11 29 21 33 38 6 23 -28 -15 -35 -12 -17 6 9 8 13 20
10 26 -4 6 -2 8 3 5 6 -4 16 0 23 8 10 12 10 15 0 15 -7 0 32 34 86 75 55 41
131 101 169 134 39 33 87 74 108 91 20 18 37 40 37 50 0 10 10 25 23 33 20 14
163 145 179 164 3 4 35 40 71 78 64 70 147 196 147 224 0 8 8 23 17 33 9 10
18 34 19 52 3 31 -1 35 -39 52 -23 10 -72 46 -109 81 -37 34 -82 70 -99 79
-18 9 -44 30 -58 47 -14 16 -43 43 -65 58 -34 25 -47 29 -105 28 -36 -1 -80
-4 -97 -9z m145 -36 c2 -2 -13 -4 -35 -4 -29 0 -35 -3 -24 -10 8 -5 33 -10 54
-10 22 0 56 -5 75 -11 20 -7 42 -14 50 -16 8 -2 12 -5 9 -8 -2 -2 -21 0 -42 6
-21 6 -74 14 -119 17 -83 7 -105 20 -65 40 20 9 85 6 97 -4z m74 -11 c-7 -2
-19 -2 -25 0 -7 3 -2 5 12 5 14 0 19 -2 13 -5z m-203 -13 c0 -5 -7 -10 -16
-10 -8 0 -12 5 -9 10 3 6 10 10 16 10 5 0 9 -4 9 -10z m-1614 -1227 c9 -18 21
-33 25 -33 5 0 24 -11 43 -24 32 -22 34 -24 15 -29 -24 -7 -16 -29 9 -25 12 2
16 -3 15 -19 -2 -13 2 -22 9 -20 6 1 22 -17 34 -40 18 -33 19 -41 7 -36 -12 5
-14 2 -9 -8 4 -8 -9 4 -28 26 -34 38 -117 157 -166 240 l-24 39 26 -19 c14
-11 34 -35 44 -52z m1214 -158 c0 -2 -9 -3 -19 -2 -11 0 -18 5 -15 9 4 6 34 0
34 -7z m-1027 -125 c10 -16 16 -30 14 -30 -2 0 -13 14 -25 30 -13 17 -19 30
-14 30 4 0 16 -13 25 -30z m1274 -175 c19 -55 37 -110 40 -122 3 -13 9 -23 14
-23 15 0 10 -27 -6 -34 -8 -3 -15 -13 -15 -22 0 -10 -5 -14 -14 -11 -8 3 -17
-1 -20 -9 -3 -8 -14 -14 -24 -14 -10 0 -27 -7 -38 -15 -10 -8 -38 -15 -60 -15
-26 0 -44 -5 -47 -14 -3 -7 -14 -16 -25 -18 -18 -5 -18 -3 -7 19 7 13 21 31
31 39 15 11 11 11 -15 -2 -19 -9 -68 -50 -110 -93 -42 -42 -97 -89 -121 -106
-63 -42 -82 -63 -82 -92 0 -17 -7 -27 -19 -30 -11 -3 -19 -9 -19 -14 0 -5 -7
-9 -16 -9 -11 0 -14 6 -8 23 14 46 41 97 47 91 4 -4 7 5 7 20 0 14 7 42 14 61
8 19 13 35 12 35 -2 0 14 19 35 43 22 23 42 50 45 60 3 10 18 31 32 47 15 15
41 43 58 62 70 76 257 249 266 246 6 -2 26 -49 45 -103z m-595 -78 c-12 -13
-22 -28 -22 -33 0 -36 -104 -134 -108 -101 -1 7 -4 24 -8 40 -5 22 -3 27 12
27 16 0 17 -2 4 -10 -13 -8 -12 -10 3 -10 9 0 17 -4 17 -9 0 -25 34 0 45 33
14 39 51 86 68 86 6 0 1 -10 -11 -23z m-182 -87 c-24 -19 -40 -25 -40 -15 0 5
51 34 60 34 3 0 -6 -8 -20 -19z m1080 10 c12 -8 10 -10 -10 -11 -60 -2 -74 -8
-121 -54 l-49 -49 20 39 c11 22 18 45 16 52 -10 25 111 44 144 23z m205 -20
c29 -1 29 -1 6 -11 -13 -5 -42 -29 -65 -52 -85 -87 -173 -154 -187 -140 -6 6
-4 15 6 23 8 7 15 18 15 25 0 6 11 17 25 23 27 12 31 16 78 58 16 13 40 32 53
41 27 17 30 29 12 36 -7 2 -4 3 7 1 11 -2 34 -4 50 -4z m-1265 -10 c0 -5 -8
-10 -17 -10 -15 0 -16 2 -3 10 19 12 20 12 20 0z m881 -4 c-11 -13 -51 -29
-51 -20 0 3 51 33 59 34 2 0 -2 -6 -8 -14z m-956 -6 l20 -9 -20 0 c-11 -1 -38
-8 -60 -16 -57 -20 -75 -19 -45 5 22 17 46 26 75 28 6 0 19 -3 30 -8z m1478
-22 c15 -5 27 -14 27 -19 0 -10 -44 8 -75 29 l-20 14 20 -7 c11 -4 32 -12 48
-17z m185 -6 c2 -7 8 -12 14 -12 17 0 126 -71 132 -86 7 -19 -4 -18 -55 9 -24
12 -51 22 -59 22 -8 0 -14 6 -12 13 1 8 -10 12 -33 12 -32 0 -55 20 -55 48 0
14 63 8 68 -6z m-1608 -7 c0 -8 -7 -15 -15 -15 -9 0 -12 6 -9 15 4 8 10 15 15
15 5 0 9 -7 9 -15z m835 -5 c-3 -5 -11 -10 -16 -10 -6 0 -7 5 -4 10 3 6 11 10
16 10 6 0 7 -4 4 -10z m666 -27 c13 -16 12 -17 -3 -4 -17 13 -22 21 -14 21 2
0 10 -8 17 -17z m-761 -30 c-24 -21 -46 -36 -49 -35 -2 2 -8 -3 -13 -12 -5 -9
-17 -20 -28 -26 -17 -9 -17 -7 2 28 14 25 36 44 67 59 66 31 70 28 21 -14z
m798 -8 c-12 -26 -38 -35 -38 -13 0 7 -11 1 -25 -14 -14 -15 -25 -30 -25 -33
0 -12 -92 -95 -101 -90 -13 8 3 32 51 80 22 22 40 43 40 47 0 5 9 8 20 8 11 0
19 5 18 12 -2 7 9 13 24 13 15 1 30 4 34 8 13 13 14 7 2 -18z m-662 -13 c-17
-16 -18 -16 -5 5 7 12 15 20 18 17 3 -2 -3 -12 -13 -22z m-281 -12 c-7 -11
-55 -9 -55 2 0 4 14 8 31 8 17 0 28 -4 24 -10z m35 -3 c0 -2 -15 -16 -32 -33
l-33 -29 29 33 c28 30 36 37 36 29z m-93 -53 c-3 -3 -12 -4 -19 -1 -8 3 -5 6
6 6 11 1 17 -2 13 -5z m9 -46 c-14 -18 -44 -51 -68 -73 l-41 -40 24 35 c22 33
97 110 106 110 2 0 -7 -15 -21 -32z m464 29 c0 -2 -9 -12 -20 -22 -24 -21 -27
-14 -4 9 15 15 24 20 24 13z m523 -83 c-52 -87 -133 -171 -263 -272 -47 -37
-121 -95 -164 -130 -55 -44 -84 -61 -95 -56 -46 21 -143 -24 -208 -96 -14 -17
-31 -30 -37 -30 -6 0 -4 6 5 13 9 7 19 22 23 35 4 12 12 22 18 22 5 0 8 6 5
14 -3 8 1 17 9 20 8 3 14 13 14 21 0 9 4 14 8 11 5 -3 19 8 32 25 14 16 31 29
38 29 7 0 11 4 7 9 -3 5 4 13 16 16 24 8 59 36 59 47 0 13 39 48 54 48 7 0 25
11 40 25 19 17 35 24 53 21 13 -3 32 -1 41 3 10 4 34 16 56 27 21 10 92 71
158 136 65 65 130 121 144 124 13 3 24 11 24 17 0 6 2 8 5 5 4 -3 -15 -41 -42
-84z m-1033 62 c0 -8 -7 -16 -15 -20 -12 -4 -13 -2 -2 14 14 24 17 25 17 6z
m837 -61 c-4 -8 -11 -15 -17 -15 -6 0 -6 7 2 20 14 22 24 19 15 -5z m935 -47
c-14 -14 2 -38 25 -38 11 0 11 -3 1 -14 -7 -8 -14 -10 -16 -5 -2 5 -13 9 -24
9 -14 0 -18 5 -14 16 3 9 6 22 6 30 0 8 8 14 17 14 13 0 14 -3 5 -12z m-1475
-50 c-3 -8 -6 -5 -6 6 -1 11 2 17 5 13 3 -3 4 -12 1 -19z m1113 12 c0 -5 -2
-10 -4 -10 -3 0 -8 5 -11 10 -3 6 -1 10 4 10 6 0 11 -4 11 -10z m-1140 -28 c0
-4 -9 -13 -19 -19 -15 -10 -20 -9 -25 2 -4 12 7 19 37 24 4 0 7 -2 7 -7z
m1131 -54 c29 -35 58 -66 63 -70 6 -4 8 -9 5 -12 -7 -7 -70 44 -64 53 2 4 -12
25 -31 46 -26 29 -37 36 -43 26 -6 -8 -11 -9 -15 -3 -5 9 6 19 25 21 3 1 30
-27 60 -61z m-3284 10 c-3 -7 -5 -2 -5 12 0 14 2 19 5 13 2 -7 2 -19 0 -25z
m3609 5 c-10 -10 -19 5 -10 18 6 11 8 11 12 0 2 -7 1 -15 -2 -18z m-1653 -8
c-10 -13 -22 -25 -27 -25 -5 0 1 11 14 25 30 32 36 32 13 0z m134 -7 c-3 -8
-6 -5 -6 6 -1 11 2 17 5 13 3 -3 4 -12 1 -19z m1267 7 c-4 -8 -10 -15 -15 -15
-4 0 -6 7 -3 15 4 8 10 15 15 15 4 0 6 -7 3 -15z m245 -26 c-16 -10 -23 -4
-14 10 3 6 11 8 17 5 6 -4 5 -9 -3 -15z m-194 -28 c-16 -16 -35 -7 -35 16 0
25 0 26 20 8 11 -10 18 -21 15 -24z m-1496 2 c-17 -22 -96 -106 -165 -176 -64
-66 -123 -133 -107 -124 7 4 14 -1 18 -13 4 -12 11 -17 18 -13 11 6 0 -11 -31
-49 -12 -14 -18 -15 -34 -5 -16 10 -22 8 -40 -13 l-21 -25 7 30 c9 37 5 32
200 237 144 152 192 199 155 151z m1671 -7 c0 -3 -4 -8 -10 -11 -5 -3 -10 -1
-10 4 0 6 5 11 10 11 6 0 10 -2 10 -4z m78 -24 c2 -15 -2 -22 -12 -22 -9 0
-16 -4 -16 -10 0 -5 -4 -10 -9 -10 -5 0 -4 15 2 35 11 38 30 42 35 7z m-227
-35 c-16 -16 -26 0 -10 19 9 11 15 12 17 4 2 -6 -1 -17 -7 -23z m-1961 -41 c0
-2 -7 -9 -15 -16 -13 -11 -14 -10 -9 4 5 14 24 23 24 12z m-1472 -72 c-12 -13
-17 -12 -34 8 -12 14 -13 18 -3 10 13 -10 19 -9 30 4 9 11 14 13 17 4 3 -7 -2
-18 -10 -26z m1376 -6 c-3 -4 -9 -8 -15 -8 -5 0 -9 4 -9 8 0 5 7 9 15 9 8 0
12 -4 9 -9z m1836 -8 c-27 -20 -36 -19 -27 5 4 8 17 15 29 15 l23 0 -25 -20z
m-3235 -13 c0 -26 -18 -25 -20 1 -1 12 3 21 9 19 6 -2 11 -11 11 -20z m3195
-39 c0 -4 -6 -5 -14 -2 -8 3 -12 12 -9 21 5 12 7 12 14 1 5 -7 9 -16 9 -20z
m-53 -10 c-3 -8 -6 -5 -6 6 -1 11 2 17 5 13 3 -3 4 -12 1 -19z m-1820 -18 c1
-11 -2 -22 -8 -25 -7 -5 -7 18 0 43 3 8 7 -1 8 -18z m1823 -4 c0 -3 -4 -8 -10
-11 -5 -3 -10 -1 -10 4 0 6 5 11 10 11 6 0 10 -2 10 -4z m495 -45 c-3 -5 -1
-13 5 -16 8 -5 7 -11 -2 -22 -11 -13 -13 -13 -19 4 -7 21 -1 43 13 43 5 0 7
-4 3 -9z m35 5 c0 -3 -4 -8 -10 -11 -5 -3 -10 -1 -10 4 0 6 5 11 10 11 6 0 10
-2 10 -4z m-2434 -141 c-14 -13 -26 -30 -26 -38 0 -7 -6 -22 -14 -33 -13 -18
-14 -17 -8 12 8 38 42 84 61 84 9 0 4 -9 -13 -25z m2328 -41 c3 -8 2 -12 -4
-9 -6 3 -10 10 -10 16 0 14 7 11 14 -7z m77 -57 c-10 -9 -11 -8 -5 6 3 10 9
15 12 12 3 -3 0 -11 -7 -18z m-41 -7 c6 -11 8 -20 6 -20 -3 0 -10 9 -16 20 -6
11 -8 20 -6 20 3 0 10 -9 16 -20z m-2435 -67 c-9 -37 -18 -20 -9 19 4 18 9 27
11 20 3 -7 2 -24 -2 -39z m2522 -5 c-3 -8 -6 -5 -6 6 -1 11 2 17 5 13 3 -3 4
-12 1 -19z m-2567 -135 c-11 -17 -11 -17 -6 0 3 10 7 31 7 45 l2 27 4 -27 c2
-15 -1 -35 -7 -45z m2569 7 c0 -10 -3 -8 -9 5 -12 27 -12 43 0 25 5 -8 9 -22
9 -30z m-1759 -4 c0 -2 -8 -10 -17 -17 -16 -13 -17 -12 -4 4 13 16 21 21 21
13z m-833 -58 c-3 -7 -5 -2 -5 12 0 14 2 19 5 13 2 -7 2 -19 0 -25z m763 -2
c0 -2 -26 -23 -57 -47 -32 -24 -64 -49 -71 -56 -17 -17 -130 -83 -142 -83 -5
0 -13 -6 -17 -14 -4 -7 -24 -21 -43 -31 -19 -10 -39 -24 -43 -31 -12 -21 -95
-75 -118 -77 -11 -1 -31 -16 -45 -35 -15 -18 -28 -31 -31 -29 -2 3 20 35 49
71 47 60 65 73 173 130 131 68 263 146 310 183 31 23 35 26 35 19z m1121 -327
c-11 -9 -21 -22 -21 -28 0 -18 -62 -82 -95 -97 -44 -20 -68 -37 -83 -57 -13
-17 -16 -17 -38 -3 -13 9 -33 16 -45 16 l-22 0 22 24 c13 13 34 27 47 30 13 4
24 10 24 15 0 5 14 12 30 16 17 4 29 10 27 13 -2 4 4 15 14 24 20 19 35 8 25
-18 -4 -10 -1 -14 6 -12 7 3 15 14 18 26 5 23 59 62 85 62 8 0 15 8 16 18 0
13 2 13 6 3 3 -8 -4 -22 -16 -32z m-311 -168 c0 -11 -25 -21 -51 -21 -10 0
-19 -5 -19 -11 0 -5 -4 -8 -9 -4 -5 3 -16 -2 -24 -10 -9 -8 -19 -15 -24 -15
-4 0 -20 -7 -35 -14 -22 -12 -28 -12 -28 -2 0 13 9 18 84 51 38 17 83 32 99
34 4 1 7 -3 7 -8z m-210 -88 c-2 -33 -154 -95 -194 -80 -25 10 2 47 34 47 15
0 34 6 44 13 10 7 33 12 52 11 18 -2 36 1 39 6 7 12 25 13 25 3z"/>
<path d="M3920 3940 c-9 -6 -10 -10 -3 -10 6 0 15 5 18 10 8 12 4 12 -15 0z"/>
<path d="M3638 2053 c-10 -2 -18 -9 -18 -14 0 -13 12 -11 34 6 20 15 16 17
-16 8z"/>
<path d="M3590 2019 c0 -5 5 -7 10 -4 6 3 10 8 10 11 0 2 -4 4 -10 4 -5 0 -10
-5 -10 -11z"/>
<path d="M2904 3863 c-15 -20 -23 -33 -16 -29 13 8 56 66 49 66 -3 0 -17 -17
-33 -37z"/>
<path d="M1120 3882 c0 -15 69 -117 70 -102 0 12 2 12 9 2 7 -11 10 -10 15 3
15 39 6 55 -44 80 -27 14 -50 22 -50 17z"/>
<path d="M2345 3880 c-4 -6 1 -20 11 -31 23 -25 28 -19 10 15 -9 17 -16 23
-21 16z"/>
<path d="M2840 3809 c-22 -18 -22 -19 -3 -10 12 6 25 16 28 21 9 15 3 12 -25
-11z"/>
<path d="M2790 3780 c-9 -6 -10 -10 -3 -10 6 0 15 5 18 10 8 12 4 12 -15 0z"/>
<path d="M2485 3735 c17 -8 41 -14 55 -14 15 0 5 6 -25 14 -62 17 -69 17 -30
0z"/>
<path d="M2668 3733 c7 -3 16 -2 19 1 4 3 -2 6 -13 5 -11 0 -14 -3 -6 -6z"/>
<path d="M2613 3723 c9 -2 23 -2 30 0 6 3 -1 5 -18 5 -16 0 -22 -2 -12 -5z"/>
<path d="M4614 3533 c21 -32 24 -44 17 -68 -51 -166 -57 -179 -81 -185 -15 -4
-20 -9 -14 -13 16 -9 74 21 74 39 0 8 9 14 20 14 23 0 24 3 8 30 -10 15 -9 23
6 39 11 12 14 21 8 21 -14 0 -5 88 11 108 7 9 4 12 -12 12 -11 0 -21 4 -21 10
0 5 -9 14 -21 20 -18 10 -18 8 5 -27z"/>
<path d="M2472 3498 c-20 -5 -40 -20 -49 -36 -19 -32 -80 -85 -71 -61 5 13
-11 15 -116 16 -66 0 -129 -3 -139 -9 -16 -8 -15 -11 9 -33 17 -16 39 -25 60
-25 18 0 35 -4 38 -9 3 -5 25 -14 50 -20 30 -7 45 -17 49 -31 7 -28 37 -37 53
-16 7 10 10 24 7 32 -6 17 33 104 48 104 15 0 34 22 34 40 0 8 9 15 20 15 11
0 29 5 40 12 30 18 7 32 -33 21z"/>
<path d="M4370 3316 c0 -3 19 -15 43 -27 23 -12 52 -30 64 -39 l23 -18 -26
-17 c-14 -9 -34 -25 -45 -36 -11 -11 -33 -19 -54 -19 -38 0 -47 -15 -15 -25
34 -11 22 -25 -22 -26 -55 -1 -90 -11 -96 -27 -5 -16 62 -16 110 1 41 14 80
45 73 57 -3 5 20 31 51 58 32 28 53 55 49 61 -15 26 -155 77 -155 57z"/>
<path d="M1715 3200 c10 -11 20 -20 23 -20 3 0 -3 9 -13 20 -10 11 -20 20 -23
20 -3 0 3 -9 13 -20z"/>
<path d="M1810 3107 c0 -2 15 -16 33 -33 l32 -29 -29 33 c-28 30 -36 37 -36
29z"/>
<path d="M2630 3071 c0 -5 5 -13 10 -16 6 -3 10 -2 10 4 0 5 -4 13 -10 16 -5
3 -10 2 -10 -4z"/>
<path d="M4240 3053 c-65 -6 -75 -23 -14 -23 29 0 59 6 70 15 14 10 15 14 4
13 -8 -1 -35 -3 -60 -5z"/>
<path d="M4063 3004 c-43 -18 -42 -23 5 -17 20 3 52 1 71 -4 37 -9 55 -33 25
-33 -9 0 -15 -3 -11 -6 10 -10 46 6 42 19 -3 7 10 22 27 35 l33 22 -80 -1
c-45 0 -94 -7 -112 -15z"/>
<path d="M4097 2900 c-14 -11 -33 -20 -44 -21 -10 0 -13 -3 -5 -6 19 -8 14
-23 -8 -23 -11 0 -20 -7 -20 -15 0 -11 -12 -15 -42 -16 -24 -1 -33 -4 -20 -6
29 -6 28 -17 -2 -37 -16 -10 -55 -17 -113 -20 -113 -5 -163 -15 -157 -29 3 -8
38 -11 112 -10 59 0 110 2 114 2 4 1 32 23 62 50 29 27 60 53 67 58 19 11 95
93 87 93 -3 0 -17 -9 -31 -20z"/>
<path d="M5761 2354 c0 -11 3 -14 6 -6 3 7 2 16 -1 19 -3 4 -6 -2 -5 -13z"/>
<path d="M3840 2231 c0 -5 5 -13 10 -16 6 -3 10 -2 10 4 0 5 -4 13 -10 16 -5
3 -10 2 -10 -4z"/>
<path d="M3850 2192 c0 -23 20 -52 37 -52 15 0 15 1 1 13 -8 6 -20 21 -26 32
-6 11 -12 14 -12 7z"/>
<path d="M5782 2170 c0 -14 2 -19 5 -12 2 6 2 18 0 25 -3 6 -5 1 -5 -13z"/>
<path d="M3998 2173 c7 -3 16 -2 19 1 4 3 -2 6 -13 5 -11 0 -14 -3 -6 -6z"/>
<path d="M5780 2078 c0 -18 -3 -51 -7 -73 -3 -22 -3 -37 1 -34 10 9 23 139 14
139 -4 0 -8 -15 -8 -32z"/>
<path d="M5190 1930 c0 -5 7 -10 16 -10 8 0 12 5 9 10 -3 6 -10 10 -16 10 -5
0 -9 -4 -9 -10z"/>
<path d="M5237 1900 c-21 -25 -21 -30 -3 -30 8 0 18 9 21 21 9 29 2 32 -18 9z"/>
<path d="M5240 1850 c0 -5 5 -10 11 -10 5 0 7 5 4 10 -3 6 -8 10 -11 10 -2 0
-4 -4 -4 -10z"/>
<path d="M5040 1762 c0 -5 7 -9 15 -9 8 0 12 4 9 9 -3 4 -9 8 -15 8 -5 0 -9
-4 -9 -8z"/>
</g>
</svg>
