<?xml version="1.0" standalone="no"?>
<!DOCTYPE svg PUBLIC "-//W3C//DTD SVG 20010904//EN"
 "http://www.w3.org/TR/2001/REC-SVG-20010904/DTD/svg10.dtd">
<svg version="1.0" xmlns="http://www.w3.org/2000/svg"
 width="617.000000pt" height="617.000000pt" viewBox="0 0 617.000000 617.000000"
 preserveAspectRatio="xMidYMid meet">
<metadata>
Created by potrace 1.14, written by Peter Selinger 2001-2017
</metadata>
<g transform="translate(0.000000,617.000000) scale(0.100000,-0.100000)"
fill="#000000" stroke="none">
<path d="M2170 5940 c8 -5 24 -10 34 -10 26 0 18 6 -19 14 -22 5 -26 4 -15 -4z"/>
<path d="M2250 5908 c27 -26 38 -58 19 -58 -7 0 -10 3 -7 6 3 3 -6 17 -20 31
-21 21 -38 27 -85 30 -36 3 -64 0 -73 -7 -7 -7 -21 -9 -30 -6 -9 4 -27 0 -40
-8 -12 -9 -59 -18 -103 -22 -44 -4 -78 -10 -76 -14 3 -5 -13 -10 -35 -12 -22
-2 -40 0 -40 4 0 5 -11 8 -25 8 -29 0 -34 -16 -7 -23 11 -3 7 -5 -10 -6 -14 0
-29 5 -31 12 -4 9 -8 9 -14 1 -8 -12 -94 -44 -117 -44 -8 0 -19 -7 -26 -15 -7
-8 -34 -18 -61 -21 -27 -4 -49 -10 -49 -14 0 -4 11 -5 25 -2 15 2 25 0 25 -7
0 -6 -8 -11 -18 -11 -22 0 -81 -28 -100 -47 -7 -7 -19 -13 -25 -13 -7 0 -21
-14 -32 -30 -11 -17 -28 -33 -37 -36 -10 -3 -18 -9 -18 -14 0 -5 -9 -11 -19
-15 -11 -3 -25 -21 -31 -40 -6 -19 -20 -37 -31 -40 -11 -4 -17 -10 -14 -15 3
-5 0 -12 -7 -17 -7 -4 -22 -19 -33 -33 l-20 -24 30 18 c27 17 27 15 -9 -23
-22 -22 -37 -44 -33 -47 3 -4 -3 -24 -13 -45 -18 -34 -31 -84 -44 -160 -2 -15
-11 -40 -20 -56 -8 -17 -12 -40 -9 -51 3 -12 -2 -33 -11 -47 -9 -14 -12 -25
-7 -25 12 0 20 -92 9 -106 -4 -6 -3 -26 3 -45 9 -32 15 -72 24 -159 6 -65 18
-115 32 -128 7 -7 13 -21 13 -31 0 -29 39 -142 71 -203 16 -32 27 -58 23 -58
-3 0 1 -6 8 -13 7 -8 26 -54 43 -103 16 -49 32 -91 35 -94 3 -3 13 -19 22 -36
13 -23 15 -38 8 -70 -10 -39 -13 -114 -6 -114 2 0 20 7 41 16 20 8 41 14 45
12 5 -2 -20 -15 -55 -29 l-64 -27 6 46 c4 31 3 43 -5 39 -5 -4 -31 2 -58 13
-26 11 -48 19 -50 17 -12 -12 56 -114 111 -166 36 -34 72 -75 82 -91 10 -18
20 -25 24 -19 4 8 13 5 25 -7 11 -11 32 -25 47 -31 36 -17 36 -37 0 -28 -40
10 -9 -15 53 -44 12 -5 32 -25 45 -43 13 -18 31 -42 40 -53 10 -11 62 -76 117
-145 62 -78 148 -170 231 -245 72 -66 131 -123 131 -127 0 -4 -26 -28 -57 -55
-69 -58 -103 -94 -146 -153 -26 -36 -42 -47 -78 -56 -26 -7 -55 -17 -66 -23
-11 -5 -23 -7 -27 -4 -9 10 -55 -37 -54 -56 0 -9 -8 -36 -18 -61 -10 -28 -17
-73 -17 -120 0 -76 3 -93 22 -142 6 -16 8 -28 5 -28 -2 0 3 -15 13 -32 29 -56
30 -78 13 -234 -8 -71 -20 -116 -54 -198 -29 -68 -50 -137 -59 -195 -15 -97
-12 -91 -131 -225 -85 -96 -97 -115 -90 -156 5 -30 20 -46 108 -111 626 -470
1457 -836 2206 -973 293 -54 369 -60 670 -60 253 0 299 2 414 23 247 44 444
118 612 231 90 61 233 195 307 289 71 89 165 249 222 377 l48 109 -11 75 c-11
76 -67 210 -199 477 -28 56 -48 104 -45 107 3 3 13 6 22 6 24 0 53 36 98 120
55 103 78 230 63 344 -6 45 -18 153 -27 241 -16 154 -42 287 -64 323 -8 14 -9
13 -6 -8 3 -14 5 -35 5 -48 1 -14 5 -21 12 -16 7 4 9 0 5 -14 -4 -12 -3 -30 3
-40 6 -11 7 -31 2 -48 -7 -27 -9 -25 -20 29 -7 31 -17 57 -22 57 -6 0 -8 4 -4
9 6 11 -1 16 -38 25 l-28 7 26 -46 c15 -25 23 -45 18 -45 -4 -1 3 -10 16 -21
13 -11 21 -22 17 -26 -8 -9 -47 37 -40 48 3 5 0 9 -5 9 -6 0 -11 7 -11 15 0 8
-5 15 -11 15 -5 0 -8 4 -4 9 6 10 -13 26 -21 18 -7 -7 37 -119 58 -148 11 -15
18 -37 16 -50 l-3 -24 -20 22 c-30 32 -38 44 -60 88 -13 25 -30 41 -45 45 -15
4 -25 13 -25 23 0 21 -24 34 -130 72 -44 15 -87 34 -95 41 -18 15 -145 74
-159 74 -5 0 -22 5 -38 11 -15 6 -30 11 -33 12 -3 0 -35 16 -73 34 -37 18 -70
33 -72 33 -3 0 -14 9 -25 20 -11 11 -26 17 -35 14 -11 -5 -14 -2 -8 12 4 12 3
15 -5 10 -7 -4 -12 -2 -12 6 0 11 -2 10 -9 0 -5 -8 -35 -16 -70 -19 -56 -5
-64 -4 -77 16 -15 21 -54 29 -54 11 0 -5 -4 -10 -10 -10 -5 0 -8 10 -7 22 5
30 -22 57 -58 58 -66 1 -194 -7 -227 -14 l-26 -6 28 30 c28 30 112 56 144 44
29 -11 26 16 -4 35 l-32 19 75 63 c44 39 95 71 126 83 55 19 60 26 36 50 -8 8
-15 16 -15 18 0 2 23 4 51 5 28 1 53 4 57 7 10 11 -15 28 -44 29 -16 1 -35 7
-41 14 -16 14 -12 85 6 107 10 12 10 16 1 16 -7 0 -10 6 -7 14 3 8 -2 16 -12
19 -15 3 -17 0 -13 -17 5 -21 5 -21 -16 -2 -24 21 -30 42 -9 30 6 -4 8 -3 4 1
-4 5 -13 10 -20 12 -78 18 -82 19 -61 26 12 4 30 5 40 1 18 -5 18 -5 1 9 -10
9 -33 13 -57 12 -22 -2 -43 1 -46 6 -3 5 -9 7 -14 4 -5 -3 -11 -1 -15 5 -3 6
4 10 17 11 21 1 22 2 3 8 -60 21 -116 55 -160 98 -27 26 -76 65 -107 86 -32
21 -61 44 -65 51 -4 8 -28 31 -53 51 l-45 38 -110 -6 c-61 -3 -164 -18 -230
-33 -156 -34 -208 -42 -274 -43 -43 -1 -52 -4 -47 -16 3 -9 43 -73 89 -143
118 -180 113 -170 107 -227 -4 -38 -14 -61 -40 -92 -19 -23 -38 -39 -42 -37
-4 2 -5 47 -3 99 2 52 0 95 -4 95 -10 0 -31 -69 -31 -102 0 -13 -6 -32 -14
-43 -11 -16 -13 -8 -9 56 5 90 -7 81 -31 -26 -10 -44 -22 -87 -27 -95 -5 -8
-16 -30 -24 -47 -19 -41 -40 -44 -30 -5 18 72 45 215 42 219 -2 2 -15 -29 -27
-69 -30 -95 -68 -175 -86 -182 -19 -7 -18 0 11 101 14 48 23 92 21 97 -2 6 -5
3 -5 -6 -1 -21 -5 -22 -32 -8 -15 8 -19 7 -19 -4 0 -7 -7 -16 -15 -20 -9 -3
-15 -18 -15 -34 0 -16 -7 -35 -15 -42 -8 -7 -15 -18 -15 -24 0 -7 -6 -21 -14
-31 -11 -16 -17 -17 -29 -7 -12 10 -18 10 -31 -4 -10 -9 -25 -14 -37 -11 -10
3 -25 0 -32 -7 -14 -14 -34 -10 -60 12 -14 12 -22 13 -35 6 -9 -6 -44 -9 -77
-7 -33 2 -69 0 -80 -6 -67 -31 -100 -41 -191 -56 -129 -23 -150 -18 -148 31 1
20 8 40 14 44 9 6 9 9 -1 13 -10 4 -9 6 4 6 9 1 23 13 30 29 6 15 16 32 22 39
5 7 16 19 23 27 6 8 12 18 12 22 0 3 17 27 38 53 21 25 41 54 45 63 5 14 10
15 36 5 18 -6 26 -14 19 -18 -6 -4 3 -6 20 -5 29 1 59 16 33 16 -7 0 -9 5 -6
10 3 6 -1 13 -10 16 -9 4 -14 12 -11 19 2 7 -11 18 -30 25 -19 8 -34 17 -34
21 0 9 -71 27 -139 35 -48 6 -53 4 -48 -11 4 -9 7 -18 7 -20 0 -2 15 -7 34
-11 39 -7 58 -40 60 -102 l1 -37 -50 -5 c-34 -4 -68 -16 -104 -39 l-54 -35
-146 0 c-162 -1 -173 4 -126 58 14 16 25 39 26 50 1 12 3 41 5 66 2 25 3 79 4
120 0 79 23 155 51 173 25 15 85 -1 111 -30 67 -77 141 -147 145 -136 3 8 18
5 51 -10 143 -64 394 25 478 169 21 36 25 56 25 116 0 40 -5 89 -11 108 -13
46 -13 47 10 53 16 4 20 14 20 47 0 22 6 53 14 68 24 48 27 79 10 97 -15 14
-13 19 18 53 18 20 55 68 82 105 50 71 52 79 33 162 -5 19 -42 134 -54 165 -3
8 -7 20 -7 25 -5 34 -39 125 -47 125 -5 0 -9 8 -9 18 0 10 -9 36 -19 58 -10
21 -25 59 -32 84 -7 25 -17 50 -22 57 -5 7 -10 24 -11 38 -2 14 -10 33 -18 43
-13 15 -31 52 -29 60 3 9 -51 102 -60 102 -6 0 -8 9 -4 21 5 14 -1 27 -19 44
-14 13 -27 29 -28 35 -5 18 -50 64 -80 79 -15 8 -25 18 -22 23 3 4 -7 8 -23 8
-19 0 -24 3 -15 9 10 6 7 10 -12 15 -14 3 -26 11 -26 16 0 6 -12 10 -26 10
-25 0 -54 20 -54 37 0 5 -18 7 -41 5 -37 -4 -41 -3 -35 16 4 11 2 23 -4 27 -5
3 -10 1 -10 -4 0 -18 -15 -13 -44 14 -20 19 -34 23 -61 20 -27 -4 -33 -2 -29
9 4 10 -9 22 -38 36 l-43 21 25 -23z m-1020 -352 c0 -3 -4 -8 -10 -11 -5 -3
-10 -1 -10 4 0 6 5 11 10 11 6 0 10 -2 10 -4z m1347 -449 c7 3 16 -3 19 -12 5
-12 9 -13 14 -4 6 8 15 1 31 -23 12 -19 34 -41 49 -50 29 -17 60 -73 60 -110
0 -14 3 -28 7 -32 4 -3 8 -13 10 -21 2 -8 4 -21 6 -28 1 -7 13 -27 25 -45 13
-17 20 -36 17 -42 -3 -6 1 -7 10 -4 10 4 15 2 13 -6 -2 -8 11 -23 29 -34 17
-12 37 -33 44 -48 6 -16 16 -28 21 -28 10 0 78 -143 78 -164 0 -26 -47 -55
-114 -71 -56 -12 -71 -13 -78 -3 -6 10 -8 10 -8 1 0 -7 -9 -17 -20 -23 -30
-16 -25 -6 20 41 l40 42 -21 20 c-16 15 -28 17 -52 12 -18 -4 -54 -7 -82 -7
-34 1 -45 -2 -35 -8 11 -7 6 -10 -17 -10 -19 0 -41 -8 -52 -19 -10 -10 -31
-21 -47 -25 -16 -4 -43 -18 -61 -32 -17 -13 -36 -24 -42 -24 -6 0 -11 -3 -11
-7 0 -7 -56 -38 -162 -89 -21 -10 -38 -22 -38 -27 0 -4 -4 -5 -10 -2 -5 3 -10
1 -10 -4 0 -6 -5 -10 -12 -8 -7 1 -12 -5 -13 -13 0 -8 -15 -17 -35 -21 -18 -4
-39 -13 -45 -21 -5 -7 -30 -14 -54 -15 -24 -2 -52 -10 -63 -19 -13 -13 -41
-18 -105 -20 -49 -2 -110 -6 -138 -8 -27 -2 -72 0 -100 4 -32 5 -77 3 -127 -6
-72 -12 -82 -17 -125 -59 -31 -31 -43 -49 -35 -54 6 -4 13 -17 15 -29 2 -12 6
-25 10 -28 12 -13 7 -24 -10 -25 -13 0 -11 -3 7 -10 20 -8 22 -12 10 -19 -30
-19 -36 -8 -59 88 -35 151 -34 145 -17 139 18 -7 24 22 15 76 -4 21 -4 35 -1
33 11 -12 30 29 21 46 -5 9 -6 24 -3 32 5 12 2 15 -10 10 -9 -3 -15 -13 -14
-22 2 -8 -3 -17 -11 -20 -10 -3 -12 1 -8 17 3 14 -1 30 -11 41 -30 33 -42 49
-42 56 0 3 -6 20 -14 37 -63 144 -71 196 -33 198 38 2 62 -3 69 -14 4 -8 11
-7 21 1 8 7 22 9 32 6 13 -5 14 -9 3 -15 -10 -7 -9 -9 5 -9 10 0 20 7 24 16 4
12 14 14 36 10 16 -3 35 -2 41 3 25 19 57 19 69 0 13 -21 29 -25 26 -6 -4 30
3 33 67 33 36 -1 67 1 69 4 5 8 92 5 134 -5 34 -7 34 -7 17 11 -18 17 -18 18
3 28 11 5 21 16 21 25 1 13 3 13 15 -3 14 -19 15 -19 15 -1 0 10 23 42 50 71
28 29 50 57 50 61 0 10 69 43 88 43 7 0 12 5 12 10 0 6 5 10 10 10 6 0 36 15
68 32 31 18 64 33 72 33 18 0 110 65 110 77 0 5 6 8 13 6 6 -1 25 10 41 25 16
15 36 25 43 23 7 -3 13 -1 13 5 0 6 5 7 10 4 6 -3 10 -2 10 4 0 5 9 13 21 16
12 4 18 12 15 21 -4 11 3 10 32 -5 20 -10 43 -16 49 -14z m190 -673 c-3 -3
-12 -4 -19 -1 -8 3 -5 6 6 6 11 1 17 -2 13 -5z m13 -39 c-7 -8 -18 -15 -24
-15 -6 0 -2 7 8 15 25 19 32 19 16 0z m159 -256 c20 -66 24 -140 11 -187 -42
-156 -328 -272 -486 -198 -88 41 -176 139 -161 179 3 7 8 0 12 -15 9 -33 16
-35 40 -8 10 11 22 17 26 14 5 -3 9 -1 9 5 0 5 -3 11 -7 14 -5 2 -1 2 7 0 42
-12 173 -1 226 18 113 43 194 113 194 168 0 20 -2 23 -10 11 -5 -8 -10 -10
-10 -4 0 16 22 34 42 34 10 0 25 11 34 25 13 20 14 28 4 43 -7 9 3 0 22 -20
19 -21 40 -56 47 -79z m-734 -123 c-10 -7 -16 -19 -13 -27 4 -11 -8 -14 -54
-16 -33 -1 -58 1 -55 3 6 6 120 52 131 53 6 1 1 -5 -9 -13z m-715 -306 c23
-55 45 -100 49 -100 4 0 7 -9 7 -20 0 -13 -5 -19 -13 -16 -21 8 -15 -8 24 -68
22 -33 47 -59 61 -63 13 -3 60 -3 105 -1 99 6 177 34 238 86 l44 37 -23 -32
c-14 -19 -48 -44 -85 -62 -119 -56 -251 -65 -335 -22 -75 38 -162 174 -162
254 0 34 2 37 20 27 11 -6 26 -23 34 -38 16 -28 22 -13 7 16 -8 16 -22 102
-17 102 2 0 22 -45 46 -100z m338 -53 c4 6 22 10 39 9 25 -1 33 -6 33 -20 0
-15 3 -16 15 -6 19 16 20 3 1 -15 -7 -8 -16 -11 -20 -8 -3 4 -6 -3 -6 -14 0
-12 -7 -23 -15 -27 -8 -3 -15 -12 -15 -20 0 -9 -11 -16 -27 -18 -20 -2 -28 -9
-28 -23 0 -14 -8 -21 -27 -23 -16 -2 -28 -8 -28 -14 0 -6 -9 -3 -19 6 -13 12
-27 15 -42 11 -12 -4 -24 -3 -28 1 -3 5 -14 14 -24 19 -18 10 -21 33 -4 27 5
-1 6 2 2 8 -3 5 1 13 9 16 11 4 14 14 10 30 -5 19 -1 24 20 30 14 3 26 9 26
13 0 3 17 7 37 9 21 1 42 7 47 12 6 6 15 5 24 -2 9 -8 16 -8 20 -1z m193 -54
c-12 -20 -14 -14 -5 12 4 9 9 14 11 11 3 -2 0 -13 -6 -23z m2515 -3 c16 -6 43
-30 59 -53 42 -58 43 -68 5 -29 -40 40 -50 34 -24 -14 14 -28 16 -38 7 -41 -7
-3 -13 -11 -13 -19 0 -9 -4 -13 -9 -10 -5 4 -21 2 -36 -4 -31 -12 -187 -2
-179 11 2 4 10 6 17 3 12 -4 77 95 77 117 0 14 38 49 54 49 7 0 26 -5 42 -10z
m-99 -196 c-3 -3 -12 -4 -19 -1 -8 3 -5 6 6 6 11 1 17 -2 13 -5z m-44 -126
c38 -14 34 -25 -13 -30 -22 -2 -40 0 -40 5 0 4 -22 6 -50 4 -46 -3 -48 -2 -34
14 13 15 13 17 -1 23 -11 4 -14 2 -9 -6 4 -7 3 -8 -4 -4 -20 12 -1 34 36 43
32 8 40 6 62 -15 14 -14 37 -29 53 -34z m-1428 22 c3 -5 1 -10 -4 -10 -6 0
-11 5 -11 10 0 6 2 10 4 10 3 0 8 -4 11 -10z m1535 1 c0 -5 -9 -7 -20 -4 -11
3 -20 7 -20 9 0 2 9 4 20 4 11 0 20 -4 20 -9z m-155 -82 c5 -7 -10 -10 -49 -8
-31 1 -59 0 -63 -4 -3 -4 2 -7 13 -7 13 -1 7 -7 -19 -21 -38 -20 -70 -17 -34
2 22 13 22 29 0 30 -31 2 40 15 94 17 29 2 54 -2 58 -9z m-2157 -8 c11 -6 10
-9 -5 -13 -23 -6 -45 1 -37 13 7 11 25 11 42 0z m779 -60 c14 -6 33 -9 43 -6
23 7 37 -13 16 -21 -9 -3 -13 -10 -11 -15 8 -12 -25 -60 -36 -53 -5 3 -9 2 -8
-3 2 -8 -12 -41 -35 -80 -29 -50 -96 -94 -96 -62 0 5 -4 8 -9 5 -5 -3 -7 -15
-4 -25 5 -19 -9 -34 -37 -38 -8 -1 -16 -7 -18 -12 -2 -6 -13 -11 -25 -11 -12
0 -31 -7 -41 -15 -26 -20 -36 -19 -36 3 1 21 24 53 42 56 25 3 38 17 38 39 0
12 16 37 35 56 19 19 35 38 35 42 0 5 6 9 13 9 32 0 87 85 72 110 -3 5 2 16
11 24 8 9 13 16 9 16 -3 0 -3 6 2 13 6 9 8 8 11 -4 1 -9 14 -21 29 -28z m1196
-3 c-3 -17 -2 -19 5 -10 7 11 10 11 15 -1 6 -16 -12 -27 -44 -27 -10 0 -19 -5
-19 -11 0 -7 -7 -8 -17 -4 -10 4 -25 8 -33 9 -8 2 -14 6 -12 9 1 4 2 12 2 18
0 5 4 8 8 5 5 -3 20 1 35 9 14 7 34 15 44 18 10 3 19 5 20 6 0 0 -1 -9 -4 -21z
m338 -135 c0 -4 7 -18 15 -30 13 -21 11 -27 -8 -24 -5 0 -8 -5 -8 -13 0 -9
-11 -12 -37 -10 -20 1 -42 0 -47 -3 -5 -4 -55 -8 -110 -10 -56 -2 -112 -5
-125 -6 -13 -1 -26 4 -28 11 -3 9 5 12 29 10 28 -3 33 0 33 19 0 19 42 63 61
63 4 0 0 -6 -9 -12 -15 -11 -12 -13 20 -13 21 0 49 -5 63 -11 14 -7 39 -10 55
-6 32 6 58 26 48 36 -4 3 2 6 11 6 12 0 16 -5 12 -15 -3 -9 0 -15 8 -15 10 0
12 7 9 23 -3 12 -3 19 1 15 4 -3 8 -10 7 -15z m-421 -57 c0 -2 -13 -6 -29 -8
-17 -2 -28 -1 -25 4 5 8 54 12 54 4z m-2040 -70 c0 -2 -8 -10 -17 -17 -16 -13
-17 -12 -4 4 13 16 21 21 21 13z m1743 -123 c-7 -2 -19 -2 -25 0 -7 3 -2 5 12
5 14 0 19 -2 13 -5z m1934 -295 c-3 -8 -6 -5 -6 6 -1 11 2 17 5 13 3 -3 4 -12
1 -19z"/>
<path d="M2355 3890 c-18 -20 -18 -21 5 -45 17 -18 26 -22 31 -13 6 9 11 9 23
-1 23 -19 20 1 -4 32 -11 14 -20 30 -20 36 0 17 -15 13 -35 -9z m30 -10 c3 -5
3 -15 -1 -21 -6 -11 -23 6 -24 24 0 10 18 9 25 -3z"/>
<path d="M4483 3563 c9 -2 25 -2 35 0 9 3 1 5 -18 5 -19 0 -27 -2 -17 -5z"/>
<path d="M3311 4624 c-13 -17 -18 -31 -12 -38 5 -6 12 -26 16 -43 3 -18 11
-33 16 -33 6 0 15 -14 21 -31 9 -26 12 -29 20 -15 5 9 14 13 20 10 7 -5 9 2 4
19 -3 14 -2 28 3 31 11 7 -44 126 -58 126 -5 0 -19 -12 -30 -26z"/>
<path d="M3137 4563 c-8 -16 -17 -44 -21 -63 l-6 -35 25 43 c14 24 22 49 19
54 -4 6 0 14 7 19 10 6 10 9 2 9 -7 0 -19 -12 -26 -27z"/>
<path d="M3085 4429 c-4 -6 -5 -12 -2 -15 2 -3 7 2 10 11 7 17 1 20 -8 4z"/>
<path d="M3222 4375 c-29 -13 -33 -19 -30 -47 2 -25 8 -33 23 -34 71 -4 67 -1
63 -48 -3 -43 -2 -44 16 -28 42 38 59 110 36 153 -13 23 -60 25 -108 4z"/>
<path d="M3217 4154 c-4 -4 -7 -14 -7 -23 0 -11 3 -12 11 -4 6 6 10 16 7 23
-2 6 -7 8 -11 4z"/>
<path d="M4438 3713 c7 -3 16 -2 19 1 4 3 -2 6 -13 5 -11 0 -14 -3 -6 -6z"/>
<path d="M2796 3604 c-3 -8 1 -14 9 -14 20 0 28 17 11 23 -8 3 -17 -1 -20 -9z"/>
<path d="M4725 3290 c-114 -11 -121 -15 -87 -50 15 -15 30 -26 34 -24 8 5 61
-18 70 -31 4 -5 10 -6 14 -2 4 4 13 2 20 -4 7 -6 27 -12 45 -14 18 -3 35 -8
38 -12 12 -16 117 -19 151 -5 14 6 19 11 12 11 -7 1 -11 5 -7 11 3 5 12 7 19
4 8 -3 16 4 19 15 3 15 0 21 -11 21 -8 0 -13 3 -9 6 7 7 -42 42 -87 62 -38 17
-125 22 -221 12z"/>
<path d="M5030 3276 c0 -2 8 -10 18 -17 15 -13 16 -12 3 4 -13 16 -21 21 -21
13z"/>
<path d="M5070 3246 c0 -3 9 -10 20 -16 11 -6 20 -8 20 -6 0 3 -9 10 -20 16
-11 6 -20 8 -20 6z"/>
<path d="M5110 3190 c0 -14 26 -23 41 -15 8 6 7 10 -2 16 -19 12 -39 11 -39
-1z"/>
<path d="M5054 3158 c-3 -5 0 -15 6 -23 10 -12 9 -15 -3 -15 -9 0 -20 -15 -27
-36 l-12 -35 -53 6 c-54 7 -115 -1 -115 -14 0 -16 36 -47 75 -65 22 -10 48
-23 57 -27 10 -5 24 -6 33 -3 8 4 21 1 29 -5 7 -6 20 -9 27 -6 21 8 74 -11 71
-25 -2 -8 3 -10 13 -6 9 3 22 3 28 -1 7 -4 21 -9 32 -10 11 -2 31 -8 45 -13
25 -10 42 -9 71 4 14 6 43 11 87 15 17 1 -10 31 -29 31 -16 0 -79 39 -109 68
-14 14 -20 22 -14 18 7 -3 12 4 12 18 0 19 -5 22 -22 18 -11 -3 -18 -2 -14 2
6 7 -45 66 -58 66 -3 0 -19 9 -35 21 -31 22 -86 32 -95 17z"/>
<path d="M5485 2700 c27 -12 43 -12 25 0 -8 5 -22 9 -30 9 -10 0 -8 -3 5 -9z"/>
</g>
</svg>
