<?xml version="1.0" standalone="no"?>
<!DOCTYPE svg PUBLIC "-//W3C//DTD SVG 20010904//EN"
 "http://www.w3.org/TR/2001/REC-SVG-20010904/DTD/svg10.dtd">
<svg version="1.0" xmlns="http://www.w3.org/2000/svg"
 width="617.000000pt" height="617.000000pt" viewBox="0 0 617.000000 617.000000"
 preserveAspectRatio="xMidYMid meet">
<metadata>
Created by potrace 1.14, written by Peter Selinger 2001-2017
</metadata>
<g transform="translate(0.000000,617.000000) scale(0.100000,-0.100000)"
fill="#000000" stroke="none">
<path d="M2293 5813 c15 -2 27 -8 27 -12 0 -10 48 -2 55 9 2 4 -21 7 -53 7
-31 0 -45 -2 -29 -4z"/>
<path d="M2238 5783 c-31 -8 -20 -25 12 -18 17 4 30 2 30 -3 0 -5 11 -7 25 -4
14 2 24 10 22 16 -4 12 -60 18 -89 9z"/>
<path d="M2418 5766 c-18 -13 -14 -26 7 -26 6 0 11 9 12 20 2 23 3 23 -19 6z"/>
<path d="M1868 5743 c7 -3 16 -2 19 1 4 3 -2 6 -13 5 -11 0 -14 -3 -6 -6z"/>
<path d="M2326 5731 c-3 -5 2 -11 12 -13 11 -3 19 0 19 8 0 16 -23 19 -31 5z"/>
<path d="M1898 5713 c7 -3 16 -2 19 1 4 3 -2 6 -13 5 -11 0 -14 -3 -6 -6z"/>
<path d="M2335 5690 l-40 -6 30 -9 c59 -17 118 -6 85 15 -16 10 -16 10 -75 0z"/>
<path d="M2604 5673 c4 -13 1 -27 -9 -37 -18 -18 -35 -21 -35 -7 0 5 -12 7
-27 5 -16 -2 -52 -7 -81 -10 -42 -6 -50 -9 -41 -20 16 -19 59 -17 74 2 9 13
21 15 58 10 30 -5 44 -11 41 -19 -2 -7 9 -20 25 -30 33 -20 41 -21 41 -7 0 6
-7 10 -15 10 -8 0 -15 5 -15 10 0 16 47 11 54 -6 3 -9 6 -31 6 -49 0 -20 6
-35 15 -39 18 -7 21 20 3 27 -10 4 -10 8 1 15 28 20 -11 101 -71 143 -30 22
-30 22 -24 2z"/>
<path d="M2161 5676 c12 -10 59 -15 59 -6 0 5 -14 10 -32 10 -17 0 -29 -2 -27
-4z"/>
<path d="M2548 5673 c6 -2 18 -2 25 0 6 3 1 5 -13 5 -14 0 -19 -2 -12 -5z"/>
<path d="M2240 5662 c0 -11 48 -13 55 -2 4 6 -7 10 -24 10 -17 0 -31 -4 -31
-8z"/>
<path d="M1980 5651 c-28 -5 -31 -8 -17 -14 25 -10 61 -9 73 2 5 5 20 11 34
14 15 3 9 4 -15 4 -22 0 -56 -2 -75 -6z"/>
<path d="M2340 5646 c0 -8 51 -13 56 -5 3 5 -9 9 -25 9 -17 0 -31 -2 -31 -4z"/>
<path d="M2070 5631 c19 -5 43 -12 53 -16 10 -4 17 -3 17 4 0 6 -1 11 -2 12
-2 0 -25 2 -53 4 -43 3 -45 3 -15 -4z"/>
<path d="M1914 5613 c10 -11 37 -12 30 -2 -3 5 -12 9 -21 9 -9 0 -13 -3 -9 -7z"/>
<path d="M2075 5596 c28 -7 52 -11 54 -9 9 7 -6 11 -54 17 l-50 5 50 -13z"/>
<path d="M2180 5601 c0 -6 5 -12 10 -12 6 -1 13 -2 18 -3 4 -1 31 -6 60 -10
30 -5 66 -14 80 -22 26 -13 24 -15 -18 -26 -8 -3 -10 -7 -4 -10 13 -8 78 24
82 40 1 6 -8 12 -20 12 -13 0 -32 8 -43 16 -19 15 -18 15 20 10 31 -4 34 -3
15 3 -39 14 -60 12 -60 -4 0 -8 -8 -15 -17 -15 -15 0 -16 2 -3 10 13 9 13 10
0 10 -8 1 -39 3 -67 6 -35 4 -53 2 -53 -5z"/>
<path d="M1818 5583 c7 -3 16 -2 19 1 4 3 -2 6 -13 5 -11 0 -14 -3 -6 -6z"/>
<path d="M1990 5582 c-25 -2 -49 -8 -55 -14 -7 -7 6 -8 45 -4 81 11 88 23 10
18z"/>
<path d="M2478 5559 c-45 -23 -49 -39 -10 -40 15 0 21 -3 15 -6 -21 -8 -15
-20 17 -32 24 -8 30 -7 30 5 0 7 4 14 9 14 6 0 6 -12 1 -30 -5 -19 -5 -28 1
-25 5 4 9 12 9 19 0 8 7 19 15 26 8 7 15 22 15 34 1 20 2 20 15 -4 l15 -25 -3
25 c-3 30 -14 50 -28 50 -6 0 -7 -4 -4 -10 3 -5 3 -10 -2 -11 -4 0 -24 -2 -43
-4 -32 -4 -33 -3 -17 9 29 23 5 26 -35 5z"/>
<path d="M2155 5560 c3 -5 13 -10 21 -10 8 0 12 5 9 10 -3 6 -13 10 -21 10 -8
0 -12 -4 -9 -10z"/>
<path d="M1585 5550 c-8 -13 15 -13 35 0 12 8 11 10 -7 10 -12 0 -25 -4 -28
-10z"/>
<path d="M2130 5518 c14 -5 41 -10 61 -10 24 1 44 -7 62 -24 15 -14 27 -20 27
-15 0 5 8 12 18 14 9 3 4 5 -13 6 -21 1 -26 4 -16 10 20 13 -8 20 -94 25 -53
3 -64 2 -45 -6z"/>
<path d="M1998 5513 c7 -3 16 -2 19 1 4 3 -2 6 -13 5 -11 0 -14 -3 -6 -6z"/>
<path d="M2390 5500 c0 -5 5 -10 10 -10 6 0 10 5 10 10 0 6 -4 10 -10 10 -5 0
-10 -4 -10 -10z"/>
<path d="M2054 5478 c-2 -3 2 -9 8 -11 10 -4 10 -6 1 -6 -7 -1 -13 -5 -13 -9
0 -4 17 -7 38 -6 20 1 62 2 92 3 61 1 59 18 -5 28 -28 4 -36 3 -31 -5 4 -7 3
-12 -3 -12 -5 0 -11 5 -13 12 -4 12 -67 18 -74 6z"/>
<path d="M2316 5473 c-6 -14 -5 -15 5 -6 7 7 10 15 7 18 -3 3 -9 -2 -12 -12z"/>
<path d="M2590 5471 c0 -12 6 -21 15 -21 8 0 15 4 15 9 0 5 -7 14 -15 21 -13
10 -15 9 -15 -9z"/>
<path d="M1995 5450 c28 -12 37 -12 30 0 -3 6 -16 10 -28 9 -21 0 -21 -1 -2
-9z"/>
<path d="M1510 5440 c-12 -8 -9 -10 13 -10 16 0 26 4 22 10 -8 12 -16 12 -35
0z"/>
<path d="M1820 5436 c0 -2 7 -6 15 -10 8 -3 15 -1 15 4 0 6 -7 10 -15 10 -8 0
-15 -2 -15 -4z"/>
<path d="M1885 5429 c-11 -16 -1 -19 13 -3 7 8 8 14 3 14 -5 0 -13 -5 -16 -11z"/>
<path d="M2553 5420 c-11 -16 -10 -18 4 -13 11 4 14 3 9 -5 -4 -7 -2 -12 3
-12 6 0 10 11 9 25 -3 30 -9 31 -25 5z"/>
<path d="M2156 5422 c-3 -5 -18 -7 -33 -5 -20 3 -34 -2 -47 -16 -29 -32 -11
-43 70 -40 70 3 87 10 63 24 -6 4 -8 13 -5 21 3 8 1 14 -3 14 -5 0 -16 3 -24
6 -8 3 -17 1 -21 -4z"/>
<path d="M1938 5408 c14 -7 26 -8 32 -2 6 6 -2 10 -23 11 -30 2 -31 1 -9 -9z"/>
<path d="M1700 5400 c0 -5 12 -10 28 -10 21 0 24 2 12 10 -20 13 -40 13 -40 0z"/>
<path d="M2035 5390 c3 -5 8 -10 11 -10 2 0 4 5 4 10 0 6 -5 10 -11 10 -5 0
-7 -4 -4 -10z"/>
<path d="M2219 5357 c-9 -7 -16 -20 -16 -29 0 -14 6 -16 24 -12 18 5 28 1 39
-15 22 -30 43 -27 40 7 -2 19 -10 28 -25 30 -25 4 -28 19 -3 25 9 3 4 5 -13 6
-16 0 -37 -5 -46 -12z"/>
<path d="M1678 5353 c7 -3 16 -2 19 1 4 3 -2 6 -13 5 -11 0 -14 -3 -6 -6z"/>
<path d="M1850 5356 c0 -2 9 -6 20 -9 11 -3 18 -1 14 4 -5 9 -34 13 -34 5z"/>
<path d="M1913 5349 c9 -6 14 -15 11 -21 -4 -7 -2 -8 4 -4 7 4 12 4 12 -1 0
-10 80 -36 87 -29 9 9 -6 38 -16 31 -5 -3 -12 -1 -16 5 -3 6 4 10 17 11 22 0
22 1 3 9 -28 12 -47 12 -40 0 11 -18 -5 -31 -26 -20 -11 6 -17 15 -14 21 4 5
-4 9 -17 9 -21 -1 -21 -2 -5 -11z"/>
<path d="M1620 5340 c0 -5 5 -10 11 -10 5 0 7 5 4 10 -3 6 -8 10 -11 10 -2 0
-4 -4 -4 -10z"/>
<path d="M1710 5325 c29 -17 74 -20 65 -5 -4 6 -15 8 -26 5 -11 -4 -19 -2 -19
4 0 6 -10 11 -22 11 -23 -1 -23 -1 2 -15z"/>
<path d="M2074 5325 c4 -10 -1 -15 -14 -15 -11 0 -20 -4 -20 -9 0 -5 8 -8 18
-6 9 1 30 -4 46 -12 22 -11 30 -12 36 -3 6 9 13 9 28 1 11 -6 33 -11 49 -10
l28 0 -25 11 c-14 6 -28 10 -32 10 -4 -1 -5 4 -3 11 4 8 -8 12 -40 10 -25 0
-45 3 -45 7 0 4 -7 11 -16 14 -12 4 -15 2 -10 -9z"/>
<path d="M1590 5279 c0 -6 7 -9 15 -5 8 3 19 -3 25 -13 5 -10 22 -21 37 -24
16 -3 39 -9 52 -13 17 -5 22 -4 17 4 -4 7 -28 18 -54 26 -26 8 -38 15 -27 16
17 2 16 3 -5 10 -37 12 -60 11 -60 -1z"/>
<path d="M1840 5283 c0 -6 -8 -13 -17 -15 -16 -3 -15 -6 6 -27 16 -16 26 -20
34 -12 8 8 16 6 30 -7 19 -17 20 -16 7 7 -10 19 -10 25 1 32 10 6 8 9 -8 9
-13 0 -26 0 -29 -1 -4 0 -11 5 -15 13 -6 9 -9 9 -9 1z"/>
<path d="M1951 5272 c-12 -12 -11 -13 7 -8 17 6 20 3 17 -12 -3 -16 1 -19 18
-14 12 3 16 7 10 9 -7 3 -10 10 -7 17 7 19 -29 26 -45 8z"/>
<path d="M1430 5270 c0 -5 7 -10 15 -10 8 0 15 5 15 10 0 6 -7 10 -15 10 -8 0
-15 -4 -15 -10z"/>
<path d="M1766 5266 c6 -16 34 -30 34 -18 0 10 -22 32 -32 32 -4 0 -5 -6 -2
-14z"/>
<path d="M2047 5271 c-15 -6 -16 -9 -5 -17 30 -24 37 -25 33 -3 -5 27 -6 28
-28 20z"/>
<path d="M1460 5253 c-17 -12 -24 -12 -36 -2 -8 6 -17 9 -20 6 -9 -9 33 -58
66 -79 17 -10 30 -25 30 -35 0 -9 10 -27 22 -40 l21 -23 -20 0 c-12 0 -33 14
-46 30 -14 17 -33 30 -42 30 -9 0 -28 9 -42 20 -14 11 -29 20 -33 20 -15 0 -4
-33 15 -46 10 -8 15 -14 10 -14 -5 0 -19 10 -32 22 -22 21 -24 21 -18 3 6 -17
5 -18 -4 -3 -7 10 -23 16 -41 16 -19 -1 -37 6 -46 18 -9 10 -13 14 -10 7 4 -7
-3 -13 -15 -15 -12 -2 -28 -14 -36 -28 -13 -22 -13 -23 0 -7 18 22 38 22 64
-2 11 -10 26 -21 34 -24 8 -2 1 -3 -14 -1 -19 3 -30 -2 -34 -14 -4 -9 -11 -20
-16 -23 -18 -12 2 -26 29 -21 16 3 25 1 21 -5 -4 -6 12 -10 39 -10 26 0 49 -5
54 -12 4 -8 16 -11 29 -6 13 4 21 2 21 -5 0 -6 8 -10 18 -8 17 3 18 8 21 56 1
30 43 30 64 -1 14 -21 13 -25 -1 -36 -10 -6 -11 -9 -4 -6 6 3 12 1 12 -5 0 -8
-9 -10 -25 -6 -29 7 -30 6 -11 -39 13 -29 13 -33 0 -28 -8 3 -14 9 -14 14 0 5
-7 9 -15 9 -9 0 -12 -6 -9 -17 4 -14 1 -12 -14 5 l-21 23 -3 -28 c-2 -18 -8
-27 -17 -25 -19 4 -32 -18 -25 -42 5 -15 3 -18 -11 -12 -14 5 -16 2 -12 -14 4
-16 0 -20 -18 -20 -13 0 -27 5 -30 10 -3 6 -12 10 -18 10 -7 0 -4 -6 5 -14 10
-7 15 -16 11 -19 -3 -4 7 -7 23 -7 20 0 25 -3 16 -9 -11 -7 -11 -9 2 -14 9 -4
16 -11 16 -17 0 -6 -12 -4 -30 5 -31 16 -86 22 -62 6 11 -7 11 -9 -2 -14 -9
-4 -16 -14 -16 -22 0 -13 6 -15 30 -10 19 4 30 3 30 -4 0 -13 52 -3 61 12 7 9
171 21 254 18 75 -2 124 9 150 35 14 14 29 23 34 19 17 -10 88 35 131 81 22
24 47 44 54 44 8 0 16 7 20 15 3 8 12 12 20 9 8 -3 17 -1 21 5 3 6 15 11 25
11 10 0 25 7 34 15 15 16 66 39 79 37 4 -1 7 2 7 7 0 5 12 12 27 16 15 3 38
18 51 32 l23 26 -28 18 c-33 22 -47 24 -37 7 7 -12 -25 14 -69 56 -16 15 -21
16 -28 5 -7 -12 -12 -12 -30 -1 -19 12 -21 12 -16 -2 4 -9 2 -16 -4 -16 -6 0
-7 -6 -3 -12 4 -7 -3 -4 -15 6 -12 11 -29 21 -37 22 -13 2 -12 -1 3 -18 18
-21 18 -21 -4 -9 -28 14 -36 14 -27 -1 6 -9 3 -9 -9 0 -9 8 -22 10 -28 6 -8
-4 -9 -3 -5 4 4 7 4 12 -1 12 -4 0 -19 3 -32 7 -20 5 -22 3 -16 -16 5 -18 2
-21 -20 -21 -15 0 -36 11 -51 27 -13 14 -26 24 -29 21 -3 -2 4 -14 15 -26 27
-28 25 -35 -5 -28 -18 5 -27 2 -31 -9 -4 -10 -14 -13 -33 -9 -25 6 -25 5 9
-24 19 -17 30 -31 23 -32 -6 0 -15 5 -18 10 -3 6 -11 10 -16 10 -6 0 -7 -5 -3
-12 4 -7 -10 -2 -32 11 -21 13 -43 29 -47 37 -8 14 -37 20 -37 8 0 -4 8 -14
18 -23 9 -9 23 -24 31 -34 12 -16 12 -17 -5 -11 -10 4 -25 11 -31 17 -19 14
-16 -8 3 -39 9 -13 14 -27 10 -31 -3 -3 -6 -1 -6 5 0 7 -5 12 -10 12 -7 0 -7
-6 0 -20 6 -11 7 -20 1 -20 -5 0 -16 15 -25 34 -20 42 -46 55 -47 23 -1 -12
-1 -27 0 -34 1 -6 -3 -14 -9 -18 -9 -6 -15 33 -11 75 1 9 -7 25 -17 35 -9 11
-16 28 -14 38 2 9 -1 17 -6 17 -6 0 -12 7 -16 15 -3 10 7 7 33 -10 33 -20 40
-22 45 -9 4 10 13 13 25 9 11 -3 22 -1 26 5 3 5 -1 10 -9 10 -9 0 -26 11 -38
25 -12 14 -26 25 -32 25 -6 0 -23 6 -38 14 -23 12 -29 12 -48 -1z m100 -48
c13 -14 19 -25 13 -25 -5 0 -20 11 -33 25 -13 14 -19 25 -13 25 5 0 20 -11 33
-25z m395 -63 c-3 -3 -11 0 -18 7 -9 10 -8 11 6 5 10 -3 15 -9 12 -12z"/>
<path d="M2090 5260 c0 -6 7 -10 15 -10 8 0 15 2 15 4 0 2 -7 6 -15 10 -8 3
-15 1 -15 -4z"/>
<path d="M1332 5241 c11 -17 48 -41 65 -41 3 0 -2 9 -12 20 -10 11 -24 20 -32
20 -7 0 -13 5 -13 10 0 6 -5 10 -10 10 -6 0 -5 -8 2 -19z"/>
<path d="M2305 5250 c-3 -5 -1 -10 4 -10 6 0 11 5 11 10 0 6 -2 10 -4 10 -3 0
-8 -4 -11 -10z"/>
<path d="M2240 5240 c0 -5 5 -10 11 -10 5 0 7 5 4 10 -3 6 -8 10 -11 10 -2 0
-4 -4 -4 -10z"/>
<path d="M1590 5232 c0 -16 28 -34 34 -23 4 6 -3 15 -14 21 -11 6 -20 7 -20 2z"/>
<path d="M2236 5201 c-17 -7 -15 -10 18 -30 20 -13 40 -20 44 -17 3 4 -3 9
-15 12 -12 4 -19 12 -17 19 7 17 -7 24 -30 16z"/>
<path d="M2307 5199 c7 -7 15 -10 18 -7 3 3 -2 9 -12 12 -14 6 -15 5 -6 -5z"/>
<path d="M1673 5169 c21 -11 44 -18 50 -16 15 5 -46 37 -70 37 -11 -1 -3 -9
20 -21z"/>
<path d="M1747 5159 c7 -7 15 -10 18 -7 3 3 -2 9 -12 12 -14 6 -15 5 -6 -5z"/>
<path d="M2850 4346 c-122 -38 -264 -93 -338 -130 -29 -15 -52 -24 -52 -21 0
2 35 23 78 44 99 51 85 53 -23 2 -103 -48 -208 -118 -199 -133 4 -6 3 -8 -3
-5 -11 7 -73 -55 -94 -94 -10 -20 -8 -26 20 -51 17 -15 36 -28 41 -28 6 0 10
19 10 42 0 29 8 51 26 76 27 34 152 122 174 122 7 0 33 11 59 25 94 50 168 77
223 82 47 5 62 2 92 -17 20 -12 43 -35 51 -51 17 -31 26 -35 56 -19 21 12 28
80 8 80 -16 0 -6 35 11 35 17 1 16 40 -1 62 -15 17 -16 17 -139 -21z m120 -16
c0 -5 -8 -10 -18 -10 -10 0 -27 -7 -38 -15 -23 -17 -34 -19 -34 -5 0 11 55 39
78 40 6 0 12 -4 12 -10z m-520 -145 c0 -2 -13 -11 -30 -20 -38 -19 -40 -11 -2
9 31 17 32 18 32 11z m-70 -39 c0 -2 -12 -11 -27 -20 l-28 -17 24 20 c23 21
31 25 31 17z"/>
<path d="M2540 4346 c-9 -12 -8 -15 8 -13 12 0 18 6 15 14 -6 16 -8 16 -23 -1z"/>
<path d="M2496 4311 c-4 -7 -5 -15 -2 -18 9 -9 19 4 14 18 -4 11 -6 11 -12 0z"/>
<path d="M2373 4258 c-19 -25 -24 -38 -14 -38 6 0 11 8 11 18 0 14 2 15 10 2
8 -12 10 -11 10 8 0 25 -4 27 -17 10z"/>
<path d="M2682 4219 c-39 -11 -52 -37 -29 -54 9 -7 13 -15 10 -19 -4 -4 6 -5
22 -2 16 3 36 13 44 21 15 15 14 18 -3 31 -16 11 -17 14 -4 14 9 0 18 -4 20
-10 2 -6 8 -6 18 0 13 9 13 11 0 20 -18 12 -34 11 -78 -1z"/>
<path d="M1554 4041 c-43 -11 -54 -19 -54 -42 0 -18 4 -20 33 -12 36 9 74 9
198 2 77 -5 88 -4 98 13 9 14 9 19 -1 22 -7 2 -29 8 -49 15 -39 12 -176 13
-225 2z"/>
<path d="M1725 3955 c-38 -8 -92 -21 -120 -29 -48 -15 -48 -16 -10 -11 113 15
122 13 40 -5 -49 -11 -115 -27 -145 -36 -66 -19 -260 -94 -260 -100 0 -18 31
-74 42 -74 6 0 27 -14 45 -32 l32 -31 10 26 c6 15 15 27 21 27 5 0 10 17 10
39 0 26 7 46 23 63 24 26 116 65 172 74 l30 5 -22 -17 c-13 -9 -23 -20 -23
-25 0 -18 23 -8 63 26 40 35 97 48 97 23 0 -6 7 -19 15 -29 15 -16 20 -15 88
7 40 14 80 29 89 34 27 15 34 13 72 -27 38 -40 36 -41 55 31 10 40 6 61 -7 39
-6 -9 -19 -9 -52 -1 -25 5 -94 8 -155 6 -60 -3 -96 -1 -80 3 17 3 80 8 140 9
74 2 100 5 80 10 -48 12 -174 9 -250 -5z m105 -35 c0 -5 -17 -10 -37 -9 -31 0
-34 2 -18 9 28 12 55 12 55 0z m-474 -157 c-3 -4 -14 -8 -24 -9 -9 -1 -28 -6
-42 -10 -22 -7 -24 -6 -11 9 8 10 28 17 49 17 19 0 32 -3 28 -7z"/>
<path d="M3830 3959 c-14 -5 -48 -34 -76 -64 -29 -30 -56 -55 -60 -55 -5 0
-20 -13 -34 -30 -24 -29 -27 -30 -60 -18 -19 7 -37 16 -40 20 -10 12 -80 -14
-80 -30 0 -20 37 -79 55 -85 8 -4 25 -30 39 -59 13 -29 31 -62 40 -73 l16 -20
12 20 c6 11 24 32 39 47 14 15 24 29 22 32 -3 2 4 24 14 48 11 24 20 60 21 82
1 21 8 49 17 62 28 43 88 96 129 115 l41 19 -35 -1 c-19 0 -46 -5 -60 -10z"/>
<path d="M2075 3950 c-3 -6 1 -7 9 -4 18 7 21 14 7 14 -6 0 -13 -4 -16 -10z"/>
<path d="M1266 3924 c-3 -9 -5 -34 -5 -57 1 -28 3 -34 6 -17 7 35 23 52 45 47
11 -3 18 0 18 10 0 8 -4 12 -9 9 -5 -3 -11 1 -15 9 -7 20 -32 19 -40 -1z"/>
<path d="M4400 3621 c-19 -46 -6 -59 18 -19 26 41 27 48 8 48 -7 0 -19 -13
-26 -29z"/>
<path d="M3595 3471 c-3 -5 -2 -12 3 -15 5 -3 9 1 9 9 0 17 -3 19 -12 6z"/>
<path d="M4280 3454 c0 -23 20 -55 30 -49 5 3 15 19 24 35 l14 30 -34 0 c-24
0 -34 -4 -34 -16z"/>
<path d="M3473 3338 c-33 -38 -173 -256 -241 -378 -59 -104 -131 -257 -167
-350 -7 -19 -27 -65 -44 -102 -16 -38 -27 -68 -23 -68 4 0 2 -4 -4 -8 -6 -4
-14 -21 -17 -39 -5 -27 -4 -31 10 -26 13 5 14 3 4 -15 -6 -11 -20 -23 -30 -27
-15 -4 -18 -12 -15 -33 7 -38 14 -40 14 -4 0 18 5 32 11 32 6 0 9 -6 6 -14 -3
-8 1 -17 9 -20 10 -4 14 0 12 12 -2 11 5 18 21 20 19 3 21 6 10 13 -10 6 -6 9
14 9 15 0 30 6 33 14 4 10 14 12 40 6 30 -7 33 -6 23 6 -10 12 -9 13 6 7 15
-5 17 -3 11 12 -5 13 2 26 23 46 22 20 31 23 35 13 9 -24 36 -4 36 27 0 22 5
29 19 29 23 0 37 16 19 22 -14 5 60 78 78 78 6 0 11 8 10 18 0 10 6 16 16 16
14 -1 17 3 11 24 -4 17 -2 23 6 18 22 -14 33 6 12 21 l-21 14 22 19 c17 13 25
15 30 7 5 -8 8 -6 8 6 0 24 55 55 90 51 22 -3 30 1 30 12 0 14 -11 16 -83 11
-89 -7 -101 -3 -109 31 -4 15 -2 22 9 22 10 0 13 6 9 17 -4 9 -1 20 6 24 9 6
9 11 -1 22 -10 13 -8 15 18 11 18 -3 31 -1 31 5 0 6 -4 11 -8 11 -4 0 -9 12
-10 28 -1 19 1 23 7 13 5 -7 14 -10 21 -6 7 4 8 10 3 14 -6 3 -12 25 -16 49
-4 32 -2 42 9 42 19 0 51 33 46 48 -2 7 -12 12 -22 12 -12 0 -20 8 -22 23 -2
14 -9 21 -21 21 -14 -2 -15 1 -6 12 6 8 18 14 26 14 20 0 28 28 13 46 -11 12
-10 17 9 30 12 9 18 20 15 26 -4 6 0 14 7 19 11 7 11 9 -2 9 -8 0 -25 -10 -36
-22z"/>
<path d="M4070 3319 c-110 -25 -107 -24 -80 -33 14 -5 29 -9 33 -10 5 0 14 -9
21 -18 7 -10 19 -18 25 -18 7 0 10 -4 7 -8 -2 -4 12 -7 32 -6 29 0 43 9 74 44
21 24 36 45 34 47 -8 9 -112 10 -146 2z"/>
<path d="M4505 3250 c3 -5 8 -10 11 -10 2 0 4 5 4 10 0 6 -5 10 -11 10 -5 0
-7 -4 -4 -10z"/>
<path d="M2620 3219 c-19 -5 -44 -14 -55 -19 -74 -34 -147 -53 -210 -55 -38 0
-90 -2 -115 -3 l-45 -3 65 -25 c57 -23 75 -25 148 -20 69 4 92 10 140 38 31
17 66 40 77 50 11 9 29 24 40 32 23 18 9 19 -45 5z"/>
<path d="M4395 3130 c3 -5 8 -10 11 -10 2 0 4 5 4 10 0 6 -5 10 -11 10 -5 0
-7 -4 -4 -10z"/>
<path d="M4348 3093 c6 -2 18 -2 25 0 6 3 1 5 -13 5 -14 0 -19 -2 -12 -5z"/>
<path d="M3490 2961 c0 -5 7 -11 14 -14 10 -4 13 -1 9 9 -6 15 -23 19 -23 5z"/>
<path d="M2183 2728 c-15 -21 -43 -85 -43 -100 0 -8 -8 -32 -19 -54 -10 -21
-24 -53 -32 -71 -10 -24 -16 -29 -26 -21 -10 8 -13 6 -13 -6 0 -9 -4 -16 -8
-16 -10 0 -8 -39 3 -63 4 -10 4 -21 0 -25 -4 -4 -10 -1 -12 6 -8 22 -20 12
-15 -13 2 -14 8 -25 12 -25 4 0 10 -7 14 -15 3 -8 0 -14 -6 -12 -7 1 -14 -6
-16 -17 -3 -13 0 -16 9 -10 8 4 4 -5 -9 -20 -12 -16 -22 -37 -22 -47 0 -24
-58 -65 -72 -51 -8 8 -21 3 -44 -15 -19 -14 -32 -28 -29 -32 2 -4 -5 -15 -16
-24 -22 -19 -26 -42 -5 -34 27 11 154 96 210 141 55 46 87 56 53 18 -10 -10
-17 -26 -17 -35 0 -10 -13 -43 -30 -73 -16 -31 -27 -60 -24 -65 3 -5 0 -9 -7
-9 -7 0 -9 -3 -6 -7 4 -3 2 -12 -4 -20 -9 -10 -8 -13 0 -13 8 0 8 -7 -3 -21
-8 -12 -12 -28 -9 -35 3 -9 -2 -14 -15 -14 -26 0 -38 -18 -18 -26 9 -3 16 -11
16 -16 0 -6 -7 -7 -16 -4 -20 7 -8 -14 19 -33 23 -16 17 -66 -11 -87 -14 -10
-15 -15 -4 -25 17 -18 15 -29 -7 -29 -11 0 -29 12 -41 27 -21 27 -22 28 -36 8
-14 -18 -13 -20 6 -23 27 -4 71 -42 64 -54 -3 -5 -1 -15 5 -21 8 -10 4 -13
-14 -12 -13 0 -27 3 -31 8 -14 13 -22 7 -17 -13 4 -14 0 -20 -11 -20 -9 0 -16
-4 -16 -10 0 -5 5 -10 10 -10 6 0 10 -7 10 -15 0 -9 -10 -15 -26 -15 -14 0
-23 -4 -19 -10 3 -5 15 -10 26 -10 10 0 19 -4 19 -9 0 -5 3 -17 7 -27 4 -12 3
-15 -6 -10 -9 6 -12 1 -9 -15 4 -30 -28 -38 -47 -12 -13 17 -14 17 -20 1 -5
-12 4 -31 24 -57 32 -40 39 -65 21 -76 -5 -3 -10 0 -10 7 0 10 -2 10 -8 1 -6
-9 -17 -6 -44 12 -43 29 -48 30 -48 10 0 -10 -9 -14 -25 -13 -20 2 -25 7 -23
23 1 11 -2 26 -7 34 -5 10 -4 16 3 19 7 2 12 10 12 18 0 9 -4 12 -10 9 -5 -3
-10 -1 -10 4 0 6 7 11 15 11 8 0 15 8 15 18 0 26 -11 34 -27 21 -11 -9 -13 1
-13 55 0 60 2 68 23 76 17 7 18 9 5 9 -10 1 -18 6 -18 12 0 5 -4 8 -9 5 -5 -4
-12 -45 -16 -94 -8 -94 -24 -146 -25 -78 0 63 -17 24 -22 -51 -1 -13 -7 -23
-12 -23 -6 0 -4 -5 4 -10 8 -5 10 -10 5 -10 -6 0 -11 -27 -11 -62 -1 -35 -2
-81 -3 -103 0 -22 -1 -47 -1 -55 1 -8 -1 -74 -3 -146 l-5 -131 147 -91 c133
-82 379 -222 391 -222 3 0 6 73 8 163 2 120 9 198 28 302 14 77 32 178 40 225
9 47 22 112 29 145 8 33 20 98 29 145 15 83 52 285 82 445 15 82 48 197 65
227 5 10 9 27 9 37 0 31 22 71 38 71 12 0 12 3 2 15 -7 8 -9 15 -6 15 11 0
-12 36 -74 119 -32 43 -77 106 -99 141 -23 35 -41 59 -41 54 -1 -5 -8 3 -16
19 -16 30 -27 34 -41 15z m-459 -1423 c4 -19 12 -35 18 -35 6 0 8 -9 5 -20 -3
-11 -1 -20 4 -20 5 0 9 -7 9 -16 0 -11 -6 -14 -21 -9 -16 5 -20 3 -17 -6 3 -8
12 -13 20 -11 9 1 18 -4 21 -11 3 -9 -3 -13 -17 -13 -16 1 -20 -4 -19 -21 2
-13 -3 -23 -10 -23 -7 -1 -5 -6 6 -14 17 -13 16 -14 -3 -19 -16 -4 -21 1 -26
31 -4 19 -2 43 4 52 6 11 7 22 0 34 -11 19 -1 136 12 136 4 0 11 -16 14 -35z"/>
<path d="M3536 2715 c-11 -8 -16 -18 -12 -22 3 -4 16 3 29 15 24 25 12 29 -17
7z"/>
<path d="M4345 2610 c-16 -6 -73 -19 -125 -30 -52 -10 -115 -26 -140 -34 -25
-9 -31 -13 -15 -10 71 14 266 33 330 33 172 1 385 -45 554 -118 124 -54 167
-86 316 -236 131 -132 188 -211 265 -365 18 -36 40 -76 48 -89 15 -21 17 -22
28 -6 8 11 20 15 29 11 11 -4 24 2 36 16 22 28 24 38 4 38 -8 0 -15 -7 -15
-15 0 -8 -4 -15 -10 -15 -5 0 -10 11 -10 24 0 14 -7 32 -16 41 -10 9 -19 26
-21 38 -11 71 -16 93 -22 97 -24 18 -82 113 -77 125 4 11 -2 15 -22 16 -17 1
-20 3 -9 6 18 5 24 23 7 23 -6 0 -20 9 -32 20 -12 11 -16 20 -9 20 16 0 5 18
-36 64 -18 19 -33 40 -33 45 0 5 -15 13 -32 16 -18 4 -40 13 -48 20 -35 29
-130 75 -195 94 -38 12 -86 27 -105 35 -53 21 -113 39 -135 42 -17 2 -153 36
-195 49 -139 44 -264 61 -315 45z"/>
<path d="M1691 2556 c-9 -10 -7 -13 11 -12 12 0 23 7 26 14 5 16 -23 15 -37
-2z"/>
<path d="M1723 2535 c-12 -12 -30 -29 -41 -36 -10 -8 -21 -21 -25 -29 -5 -13
-12 31 -8 53 1 5 -3 6 -8 3 -9 -6 -25 -71 -34 -133 -2 -12 -7 -26 -12 -30 -4
-5 -5 2 -2 15 3 12 1 20 -3 17 -5 -3 -12 0 -16 6 -4 8 -3 9 4 5 8 -5 12 0 12
13 0 13 -7 21 -16 21 -14 0 -16 -11 -12 -86 2 -47 9 -89 14 -92 5 -4 10 -18
12 -32 2 -23 12 -50 33 -92 5 -10 9 -26 9 -35 0 -15 2 -16 10 -3 5 8 10 11 11
5 7 -75 28 -74 36 2 3 26 9 55 14 65 5 9 9 35 9 58 0 31 8 51 32 83 18 23 33
43 33 44 0 0 11 3 25 5 14 1 37 18 53 37 23 28 27 43 27 93 0 63 -16 82 -46
57 -9 -7 -21 -14 -28 -16 -6 -1 -22 -5 -35 -9 -21 -6 -23 -4 -19 14 8 28 -1
27 -29 -3z m-48 -225 c-3 -5 -11 -10 -16 -10 -6 0 -7 5 -4 10 3 6 11 10 16 10
6 0 7 -4 4 -10z m-62 -60 c-3 -12 -8 -19 -11 -16 -5 6 5 36 12 36 2 0 2 -9 -1
-20z"/>
<path d="M3697 2533 c-4 -3 -7 -11 -7 -17 0 -6 5 -5 12 2 6 6 9 14 7 17 -3 3
-9 2 -12 -2z"/>
<path d="M1590 2519 c0 -5 5 -7 10 -4 6 3 10 8 10 11 0 2 -4 4 -10 4 -5 0 -10
-5 -10 -11z"/>
<path d="M3900 2491 c-160 -59 -271 -124 -423 -247 -31 -26 -60 -44 -64 -41
-10 10 162 174 206 196 21 11 38 26 38 33 0 7 3 23 7 35 6 19 4 22 -11 16 -28
-11 -107 -65 -116 -80 -4 -7 -20 -13 -35 -14 -15 0 -21 -3 -14 -6 13 -5 17
-43 4 -43 -10 0 -116 -103 -155 -151 -26 -32 -28 -33 -33 -13 -9 32 -38 19
-58 -26 -24 -54 -98 -120 -135 -120 -36 0 -61 -23 -54 -50 3 -13 -1 -22 -11
-26 -9 -4 -23 -18 -31 -33 -14 -25 -15 -25 -9 17 7 48 2 52 -29 18 -12 -13
-33 -27 -47 -31 -14 -4 -28 -13 -32 -19 -5 -7 -8 -6 -8 4 0 8 -12 -3 -28 -25
-21 -31 -32 -40 -51 -37 -15 2 -28 -2 -33 -12 -5 -9 -16 -16 -24 -16 -8 0 -12
-5 -9 -10 10 -16 -15 -80 -31 -80 -13 0 -14 10 -9 58 4 31 13 70 21 86 8 16
14 34 14 39 0 6 7 19 17 29 15 17 15 18 -3 19 -16 0 -16 1 4 9 12 5 22 18 22
29 0 45 -89 -19 -126 -91 -34 -66 -42 -189 -28 -455 4 -87 3 -143 -3 -143 -5
0 -7 -16 -5 -35 3 -21 0 -35 -7 -35 -6 0 -11 7 -11 15 0 8 -4 15 -8 15 -9 0
-32 -110 -32 -153 0 -14 -4 -27 -9 -29 -4 -1 -12 -14 -15 -28 -7 -23 -6 -23
13 5 12 17 21 38 21 48 0 9 5 17 10 17 7 0 7 6 1 18 -5 10 -7 22 -3 28 9 12
32 16 32 5 0 -27 -43 -124 -103 -231 -11 -19 -31 -55 -44 -80 -13 -24 -29 -48
-36 -52 -9 -6 -9 -8 1 -8 9 0 9 -8 -3 -36 -8 -20 -15 -45 -15 -56 0 -11 -5
-16 -11 -13 -6 4 -8 14 -4 22 4 12 3 13 -8 5 -8 -7 -17 -9 -20 -5 -7 6 -11
-14 -7 -32 1 -5 2 -25 2 -42 -1 -23 3 -33 13 -33 19 0 19 -29 1 -36 -12 -5
-13 -10 -3 -32 9 -20 9 -26 -1 -30 -6 -2 -12 -13 -12 -25 0 -11 3 -17 7 -14 3
4 11 0 17 -8 6 -8 48 -30 93 -49 l81 -35 10 47 c6 26 20 97 32 157 32 164 60
281 87 370 42 134 139 339 240 509 109 183 156 252 263 386 42 52 97 125 123
161 68 98 185 217 267 274 40 28 92 65 116 83 24 17 49 32 55 32 7 0 26 9 43
19 17 11 67 34 111 51 44 17 82 34 84 36 9 9 -17 1 -89 -25z m-963 -646 c-4
-8 -11 -15 -17 -15 -7 0 -7 6 0 21 13 23 26 19 17 -6z m40 -10 c-4 -8 -11 -15
-17 -15 -7 0 -7 6 0 21 13 23 26 19 17 -6z m-247 -145 c0 -5 -9 -10 -20 -10
-11 0 -20 5 -20 10 0 6 9 10 20 10 11 0 20 -4 20 -10z m50 -13 c0 -14 -30 -43
-44 -42 -5 0 -14 -8 -20 -18 -8 -13 -8 -20 2 -26 10 -6 10 -10 -3 -21 -13 -11
-15 -8 -16 16 -1 16 -2 41 -3 55 -1 15 3 25 9 23 5 -2 21 2 35 10 32 18 40 19
40 3z"/>
<path d="M1575 2479 c-4 -11 -4 -23 -1 -26 3 -4 6 2 6 13 0 16 2 16 10 4 7
-12 9 -10 7 8 -2 28 -14 29 -22 1z"/>
<path d="M3312 2470 c-46 -33 -50 -40 -24 -40 9 0 30 16 45 35 15 19 26 35 24
35 -2 0 -23 -14 -45 -30z"/>
<path d="M1921 2401 c-11 -19 -11 -26 2 -38 18 -18 27 0 17 37 l-6 25 -13 -24z"/>
<path d="M3203 2356 c3 -8 -1 -17 -9 -20 -23 -9 -31 -7 -15 3 9 6 10 11 2 15
-6 4 -14 0 -17 -8 -3 -9 -11 -13 -17 -9 -6 3 -7 1 -3 -5 4 -7 2 -12 -3 -12 -6
0 -20 -9 -31 -20 -20 -20 -27 -36 -12 -26 5 3 9 -1 9 -9 0 -8 -3 -13 -6 -12
-14 3 -54 -17 -79 -39 -15 -14 -35 -33 -44 -41 -18 -17 -25 -49 -9 -39 5 4 11
2 13 -3 1 -5 19 -12 39 -16 36 -7 37 -6 49 30 7 21 42 69 79 109 36 39 75 81
85 94 19 22 19 22 -9 22 -19 0 -26 -4 -22 -14z m-23 -40 c0 -2 -7 -7 -16 -10
-8 -3 -12 -2 -9 4 6 10 25 14 25 6z"/>
<path d="M1785 2290 c-3 -5 -1 -10 4 -10 6 0 11 5 11 10 0 6 -2 10 -4 10 -3 0
-8 -4 -11 -10z"/>
<path d="M2851 2206 c-1 -46 2 -67 9 -60 6 6 7 31 1 69 l-9 60 -1 -69z"/>
<path d="M2880 2240 c0 -11 5 -20 10 -20 6 0 10 9 10 20 0 11 -4 20 -10 20 -5
0 -10 -9 -10 -20z"/>
<path d="M2737 2237 c-2 -7 -1 -30 3 -52 l8 -40 1 53 c1 52 -2 64 -12 39z"/>
<path d="M2811 2209 c0 -24 4 -53 9 -64 6 -13 8 -1 5 39 -6 71 -15 88 -14 25z"/>
<path d="M2611 2220 c0 -14 7 -43 15 -65 l14 -40 -5 54 c-5 55 -26 99 -24 51z"/>
<path d="M2694 2188 c7 -54 12 -65 21 -56 10 9 -7 108 -18 108 -6 0 -7 -19 -3
-52z"/>
<path d="M2775 2184 c10 -77 15 -81 15 -11 0 31 -5 59 -11 63 -7 4 -9 -11 -4
-52z"/>
<path d="M2581 2210 c0 -14 4 -34 9 -45 8 -18 9 -18 9 5 0 14 -4 34 -9 45 -8
18 -9 18 -9 -5z"/>
<path d="M2656 2183 c4 -27 10 -57 15 -68 6 -17 8 -15 8 10 1 47 -11 105 -21
105 -5 0 -6 -20 -2 -47z"/>
<path d="M1752 2200 c-14 -23 -16 -94 -3 -85 10 6 27 93 19 100 -2 2 -9 -5
-16 -15z"/>
<path d="M1770 2105 c-12 -25 -28 -45 -35 -45 -18 0 -24 -20 -14 -48 10 -26
-4 -62 -24 -62 -7 0 -6 -4 3 -10 10 -6 11 -10 3 -10 -7 0 -13 -6 -13 -13 0 -7
9 -13 20 -13 14 0 19 5 15 15 -8 22 4 48 24 54 11 2 30 21 43 42 18 28 22 47
20 86 -2 27 -8 49 -12 49 -5 0 -18 -20 -30 -45z"/>
<path d="M2020 2129 c0 -5 -4 -7 -10 -4 -5 3 -10 1 -10 -4 0 -6 9 -11 20 -11
13 0 18 5 14 15 -7 17 -14 20 -14 4z"/>
<path d="M2711 2104 c0 -11 3 -14 6 -6 3 7 2 16 -1 19 -3 4 -6 -2 -5 -13z"/>
<path d="M1930 2072 c-23 -10 -22 -31 0 -29 12 1 20 8 20 19 0 10 -1 18 -2 17
-2 0 -10 -3 -18 -7z"/>
<path d="M1885 2039 c-4 -6 -5 -12 -2 -15 2 -3 7 2 10 11 7 17 1 20 -8 4z"/>
<path d="M2665 2029 c-4 -6 -2 -15 5 -19 7 -4 9 -13 6 -19 -4 -6 -5 -11 -2
-11 3 0 10 9 15 19 12 22 -11 52 -24 30z"/>
<path d="M1918 1978 c-9 -5 -4 -8 15 -8 15 0 27 4 27 8 0 11 -25 11 -42 0z"/>
<path d="M2808 1900 c-18 -31 -11 -44 16 -34 17 6 19 18 8 46 -6 15 -10 13
-24 -12z"/>
<path d="M3752 1885 c-6 -14 -16 -25 -21 -25 -6 0 -15 -9 -21 -20 -16 -29 -9
-25 40 25 28 28 38 45 29 45 -9 0 -21 -11 -27 -25z"/>
<path d="M1710 1879 c-12 -8 -9 -9 9 -4 19 6 23 4 18 -9 -4 -9 -3 -25 1 -37 7
-19 9 -19 22 -5 10 13 10 22 2 41 -12 27 -28 31 -52 14z"/>
<path d="M1907 1860 c-3 -11 -1 -23 4 -26 5 -3 9 6 9 20 0 31 -6 34 -13 6z"/>
<path d="M3656 1827 c-9 -7 -18 -20 -20 -30 -1 -10 -18 -37 -37 -60 -19 -23
-45 -58 -58 -77 l-24 -35 25 25 c80 79 150 164 140 168 -7 2 -10 8 -6 13 7 13
1 11 -20 -4z"/>
<path d="M1891 1694 c0 -11 3 -14 6 -6 3 7 2 16 -1 19 -3 4 -6 -2 -5 -13z"/>
<path d="M1860 1651 c0 -6 5 -13 10 -16 6 -3 10 1 10 9 0 9 -4 16 -10 16 -5 0
-10 -4 -10 -9z"/>
<path d="M3499 1603 c-13 -16 -12 -17 4 -4 16 13 21 21 13 21 -2 0 -10 -8 -17
-17z"/>
<path d="M3365 1571 c9 -8 -17 -30 -30 -25 -8 4 -22 -19 -41 -68 -31 -81 -32
-83 -39 -77 -2 3 2 29 10 59 8 30 15 56 15 57 0 1 -7 0 -15 -3 -8 -4 -15 -12
-15 -20 0 -8 -6 -14 -12 -14 -27 -1 -107 -154 -108 -203 0 -9 -4 -25 -10 -35
-5 -9 -16 -34 -24 -54 -8 -21 -22 -38 -30 -38 -11 0 -16 -9 -16 -27 -1 -28
-35 -193 -42 -196 -33 -17 -44 -29 -52 -56 -5 -17 -13 -31 -17 -31 -5 0 -9
-10 -9 -22 0 -13 -7 -36 -15 -52 -8 -15 -15 -42 -15 -60 0 -17 -5 -38 -10 -46
-7 -10 -10 12 -10 71 0 106 -7 142 -31 168 -12 13 -14 21 -7 23 7 3 13 33 15
74 l4 69 -21 -24 c-11 -13 -20 -32 -20 -42 0 -10 -4 -19 -8 -19 -5 0 -9 -6
-10 -12 0 -7 -2 -22 -4 -33 -2 -12 2 -19 10 -18 14 3 17 -33 3 -39 -5 -1 -12
-39 -16 -82 -4 -43 -9 -88 -11 -100 -3 -12 -6 -87 -6 -168 -1 -117 -5 -148
-15 -148 -8 0 -16 7 -19 15 -7 18 -66 55 -88 55 -25 0 -19 -18 16 -50 25 -23
29 -32 20 -43 -10 -12 2 -19 67 -44 l79 -30 5 43 c2 25 33 99 75 182 38 77 77
165 86 195 23 78 66 172 112 241 21 32 47 70 56 85 21 31 24 71 5 71 -15 0
-47 -51 -47 -75 0 -9 -4 -13 -10 -10 -5 3 -10 24 -10 46 0 74 22 132 76 203
29 39 56 83 60 99 3 16 9 25 13 19 6 -11 32 8 119 90 34 31 43 46 39 64 -2 13
0 21 4 18 5 -3 9 2 9 11 0 12 -9 15 -35 13 -19 -1 -32 -4 -30 -7z"/>
<path d="M3820 1190 c-11 -11 -24 -20 -28 -20 -5 0 -17 -9 -28 -21 -10 -12
-31 -27 -46 -35 -15 -8 -43 -30 -61 -48 -19 -19 -44 -37 -56 -41 -12 -3 -19
-10 -16 -15 3 -4 -6 -11 -20 -14 -14 -4 -25 -11 -25 -16 0 -6 -8 -10 -17 -10
-10 0 -34 -10 -53 -21 -19 -12 -55 -23 -80 -25 -67 -5 -69 -6 -62 -22 3 -10 1
-13 -6 -8 -8 4 -12 0 -12 -11 0 -12 -3 -14 -8 -6 -5 8 -13 9 -22 3 -10 -7 -11
-10 -2 -10 6 0 12 -5 12 -11 0 -6 -7 -9 -15 -6 -8 4 -17 1 -21 -4 -3 -6 -17
-8 -31 -4 -21 5 -23 4 -14 -14 15 -26 14 -28 -9 -34 -10 -3 -21 0 -23 6 -2 6
-11 -7 -21 -28 -10 -21 -30 -51 -45 -67 -14 -17 -26 -34 -26 -40 0 -13 -116
-148 -128 -148 -5 0 -4 -6 2 -14 9 -11 9 -16 0 -22 -8 -4 -9 -3 -5 4 4 7 2 12
-3 12 -6 0 -11 -4 -11 -10 0 -5 -5 -9 -11 -7 -6 1 -13 -6 -14 -15 -6 -32 379
179 472 258 11 11 35 30 53 44 17 14 48 39 68 57 20 17 85 72 145 123 59 50
125 117 147 148 22 31 43 62 47 67 11 14 12 45 2 45 -5 0 -18 -9 -29 -20z"/>
<path d="M3916 1114 c-5 -14 -4 -15 9 -4 17 14 19 20 6 20 -5 0 -12 -7 -15
-16z"/>
<path d="M3885 1080 c-3 -5 -2 -10 4 -10 5 0 13 5 16 10 3 6 2 10 -4 10 -5 0
-13 -4 -16 -10z"/>
<path d="M1504 1049 c-3 -6 -1 -16 5 -22 8 -8 11 -5 11 11 0 24 -5 28 -16 11z"/>
<path d="M3845 1050 c-3 -6 1 -7 9 -4 18 7 21 14 7 14 -6 0 -13 -4 -16 -10z"/>
<path d="M1436 1018 c3 -4 9 -8 15 -8 5 0 9 4 9 8 0 5 -7 9 -15 9 -8 0 -12 -4
-9 -9z"/>
<path d="M1515 980 c3 -5 8 -10 11 -10 2 0 4 5 4 10 0 6 -5 10 -11 10 -5 0 -7
-4 -4 -10z"/>
<path d="M2450 944 c0 -8 5 -12 10 -9 6 4 8 11 5 16 -9 14 -15 11 -15 -7z"/>
<path d="M2433 898 c-11 -19 -13 -38 -2 -38 13 0 30 38 20 45 -5 3 -13 0 -18
-7z"/>
<path d="M2370 760 c-12 -8 -11 -10 7 -10 12 0 25 5 28 10 8 13 -15 13 -35 0z"/>
<path d="M5645 724 c-88 -98 -248 -253 -255 -249 -5 3 -7 20 -5 38 l5 32 -14
-30 c-17 -34 -22 -70 -7 -46 6 10 10 10 16 1 4 -6 0 -19 -9 -29 -17 -19 -22
-61 -7 -61 6 0 16 8 23 18 8 9 58 60 113 112 104 99 129 130 159 193 23 49 15
58 -19 21z"/>
</g>
</svg>
