<?xml version="1.0" standalone="no"?>
<!DOCTYPE svg PUBLIC "-//W3C//DTD SVG 20010904//EN"
 "http://www.w3.org/TR/2001/REC-SVG-20010904/DTD/svg10.dtd">
<svg version="1.0" xmlns="http://www.w3.org/2000/svg"
 width="617.000000pt" height="617.000000pt" viewBox="0 0 617.000000 617.000000"
 preserveAspectRatio="xMidYMid meet">
<metadata>
Created by potrace 1.14, written by Peter Selinger 2001-2017
</metadata>
<g transform="translate(0.000000,617.000000) scale(0.100000,-0.100000)"
fill="#000000" stroke="none">
<path d="M3847 6164 c-1 -1 -45 -4 -97 -8 -52 -3 -107 -8 -123 -11 -15 -3 -55
-10 -90 -15 -74 -13 -274 -63 -343 -85 -77 -26 -216 -76 -249 -90 -16 -8 -66
-29 -110 -48 -82 -36 -273 -124 -289 -135 -5 -3 -7 2 -3 11 4 11 1 17 -8 17
-9 0 -12 6 -9 15 5 11 2 13 -10 9 -9 -3 -16 -10 -16 -15 0 -5 -7 -9 -15 -9 -8
0 -15 7 -15 15 0 9 -7 18 -15 21 -8 4 -12 11 -8 17 4 6 1 7 -8 1 -22 -14 -36
-13 -36 2 0 9 4 10 12 4 7 -6 11 -3 11 10 0 13 -6 17 -21 13 -69 -15 -102 -10
-82 12 14 15 30 9 20 -8 -4 -7 0 -6 10 2 20 16 22 22 5 18 -8 -1 -12 6 -10 18
4 18 2 18 -17 -4 l-21 -24 -53 26 c-29 15 -57 27 -62 27 -6 0 -22 7 -37 14
-15 8 -30 11 -33 6 -3 -5 -15 -7 -26 -5 -17 4 -19 2 -9 -10 7 -8 16 -12 21 -9
5 3 9 -1 9 -9 0 -8 -12 -14 -30 -15 -59 -4 -65 -5 -80 -16 -13 -9 -13 -9 -2 6
10 12 10 18 1 24 -8 4 -9 3 -5 -4 5 -8 -1 -12 -17 -12 -14 0 -31 -7 -38 -17
-13 -15 -12 -15 8 -2 12 7 25 10 29 6 13 -12 -3 -19 -56 -22 -28 -1 -54 -6
-57 -9 -3 -3 -12 -1 -20 5 -7 6 -13 8 -13 4 0 -4 -7 -2 -15 5 -12 10 -15 10
-15 -1 0 -11 -2 -11 -10 1 -7 11 -10 11 -10 2 0 -7 -4 -11 -9 -7 -5 3 -17 -2
-25 -11 -9 -8 -16 -11 -16 -5 0 13 -60 3 -75 -12 -7 -7 -5 -7 4 -2 9 5 12 4 7
-3 -4 -7 -15 -8 -30 -2 -27 10 -41 3 -26 -14 6 -8 3 -12 -8 -14 -34 -4 -52 -8
-58 -15 -4 -4 -13 -2 -21 5 -11 9 -18 8 -30 -5 -15 -15 -14 -16 8 -11 l24 5
-24 -11 c-14 -6 -32 -12 -40 -14 -36 -7 -72 -27 -66 -36 4 -6 3 -9 -2 -8 -4 1
-21 -10 -37 -25 -16 -15 -38 -27 -48 -27 -13 0 -17 -4 -12 -12 5 -9 2 -8 -9 1
-10 8 -21 11 -24 7 -4 -4 -1 -11 7 -16 13 -8 12 -10 -2 -10 -9 0 -24 -10 -33
-22 -8 -13 -19 -22 -22 -20 -4 2 -9 -2 -12 -9 -2 -7 2 -9 10 -5 8 4 3 -2 -11
-13 -14 -11 -28 -21 -32 -21 -4 0 -5 -7 -2 -15 4 -8 -1 -17 -10 -21 -9 -3 -16
-12 -16 -19 0 -7 -7 -15 -15 -19 -8 -3 -15 -11 -15 -18 0 -17 -47 -68 -62 -68
-9 0 -9 -3 -1 -11 10 -10 3 -49 -18 -91 -5 -10 -9 -24 -9 -31 0 -8 -10 -19
-23 -26 -21 -11 -21 -11 0 -6 17 5 21 2 18 -12 -2 -10 -4 -18 -5 -18 -2 0 -4
-9 -27 -100 -9 -38 -21 -73 -26 -76 -5 -4 -3 -9 4 -12 9 -4 8 -6 -5 -6 -14 -1
-16 -4 -7 -14 8 -10 7 -17 -1 -25 -9 -9 -9 -12 1 -12 8 0 12 -12 10 -38 -2
-21 0 -43 5 -50 4 -7 3 -12 -2 -12 -6 0 -13 -7 -16 -16 -4 -10 -2 -13 6 -8 7
5 9 2 5 -8 -3 -9 0 -21 6 -28 9 -10 9 -11 -3 -5 -12 7 -13 6 -3 -7 7 -8 10
-17 8 -20 -3 -3 -1 -17 4 -31 7 -18 7 -27 -1 -29 -7 -3 -6 -9 4 -18 14 -13 6
-24 -68 -94 -349 -327 -555 -577 -638 -774 -132 -314 -175 -600 -138 -927 54
-488 313 -972 762 -1426 84 -85 123 -121 260 -243 19 -17 71 -60 115 -95 44
-34 90 -71 102 -81 12 -10 30 -23 41 -29 11 -6 26 -17 34 -24 29 -28 343 -230
460 -296 21 -12 55 -31 75 -43 75 -42 371 -187 485 -237 268 -116 617 -234
878 -297 44 -10 309 -65 335 -69 201 -29 284 -38 372 -39 35 -1 63 -3 63 -6 0
-4 297 -5 310 0 3 1 28 3 55 5 28 3 68 7 90 10 22 3 63 8 90 11 28 4 93 17
145 30 52 14 103 26 112 29 31 7 202 77 235 96 18 11 50 29 71 40 158 90 329
260 454 454 122 189 230 471 287 750 37 185 36 178 56 350 25 219 25 706 0
915 -2 19 -7 60 -10 90 -5 49 -28 228 -41 320 -10 68 -66 346 -90 450 -23 96
-36 146 -81 310 -9 30 -40 132 -71 225 -228 708 -560 1305 -927 1671 -238 237
-453 347 -750 383 -80 10 -203 19 -208 15z m-1683 -233 c4 -5 -1 -8 -9 -7 -21
3 -31 16 -12 16 9 0 18 -4 21 -9z m80 -26 c11 -8 18 -17 15 -19 -2 -2 -15 4
-28 15 -27 22 -15 26 13 4z"/>
<path d="M2290 5971 c0 -6 4 -13 10 -16 6 -3 7 1 4 9 -7 18 -14 21 -14 7z"/>
<path d="M1336 5703 c-6 -14 -5 -15 5 -6 7 7 10 15 7 18 -3 3 -9 -2 -12 -12z"/>
<path d="M1086 5462 c-3 -5 1 -9 9 -9 8 0 12 4 9 9 -3 4 -7 8 -9 8 -2 0 -6 -4
-9 -8z"/>
</g>
</svg>
