<svg xmlns="http://www.w3.org/2000/svg" viewBox="0 0 128 128"><defs><style>.cls-1{fill:#00005b;}.cls-2{fill:#99f;}</style></defs><g id="Layer_2" data-name="Layer 2"><g id="Слой_1" data-name="Слой 1"><g id="After_Effects" data-name="After Effects"><rect id="Прямоугольник_3" data-name="Прямоугольник 3" class="cls-1" width="128" height="128" rx="20"/><path id="Контур_4" data-name="Контур 4" class="cls-2" d="M52.56,78.14H33L29.05,91a1,1,0,0,1-1,.77h-9.9c-.57,0-.76-.31-.59-.93l16.92-48c.16-.51.33-1.08.5-1.73a18,18,0,0,0,.34-3.43.53.53,0,0,1,.45-.59H49.35c.39,0,.62.14.67.42l19.2,53.45c.17.56,0,.85-.5.84h-11a.76.76,0,0,1-.84-.59Zm-16.49-9H49.43c-.34-1.12-.73-3.44-1.18-4.85l-1.44-4.52c-.51-1.61-1-3.22-1.52-4.82s-1-3.16-1.4-4.66-.8-2.86-1.14-4.1h-.09A68,68,0,0,1,40.89,53c-.79,2.54-1.6,5.13-2.41,7.78S36.86,66.89,36.07,69.14Z"/><path id="Контур_5" data-name="Контур 5" class="cls-2" d="M100.23,73.53H83.57a13.06,13.06,0,0,0,1.72,4.84,8.76,8.76,0,0,0,3.85,3.17A16.58,16.58,0,0,0,96,83a23.31,23.31,0,0,0,4.72-.37,22.57,22.57,0,0,0,5-1.48q.42-.34.42.42v8a1.17,1.17,0,0,1-.12.63,1.37,1.37,0,0,1-.38.38,23.83,23.83,0,0,1-5.5,1.82,34.14,34.14,0,0,1-6.85.27,24.32,24.32,0,0,1-10.07-1.86,18.18,18.18,0,0,1-6.6-5A19.63,19.63,0,0,1,72.94,79a27.11,27.11,0,0,1-1.1-7.65A26.48,26.48,0,0,1,73.15,63a21.85,21.85,0,0,1,3.93-7.19,19,19,0,0,1,6.35-5A20,20,0,0,1,92.23,49a21.13,21.13,0,0,1,8.6,1.7A14.74,14.74,0,0,1,106.37,55a19.09,19.09,0,0,1,3.12,6,21.29,21.29,0,0,1,1,6.43c0,1.24,0,2.37-.13,3.38a15.61,15.61,0,0,1-.32,1.79.77.77,0,0,1-.76.68c-.34,0-.92,0-1.74.13s-2.27,0-3.48.08S101.58,73.53,100.23,73.53Zm-16.7-6.72H94.6c1.35,0,2.35,0,3,0a6.42,6.42,0,0,0,1.23-.13v-.51a13.9,13.9,0,0,0-.18-3,6.9,6.9,0,0,0-6.85-4.82,7.34,7.34,0,0,0-7,4A17.53,17.53,0,0,0,83.53,66.81Z"/></g></g></g></svg>