<?xml version="1.0" encoding="utf-8"?>
<!-- Generator: Adobe Illustrator 26.0.0, SVG Export Plug-In . SVG Version: 6.00 Build 0)  -->
<svg version="1.1" id="Layer_1" xmlns="http://www.w3.org/2000/svg" xmlns:xlink="http://www.w3.org/1999/xlink" x="0px" y="0px"
	 viewBox="0 0 128 128" style="enable-background:new 0 0 128 128;" xml:space="preserve">
<style type="text/css">
	.st0{fill:#00005B;}
	.st1{fill:#9999FF;}
</style>
<g id="Layer_2_00000080892256643694029710000001937388048107917980_">
	<g id="Слой_1">
		<g id="After_Effects">
			<g>
				<path class="st0" d="M20,127c-10.5,0-19-8.5-19-19V20C1,9.5,9.5,1,20,1h88c10.5,0,19,8.5,19,19v88c0,10.5-8.5,19-19,19H20z"/>
				<path class="st1" d="M108,2c9.9,0,18,8.1,18,18v88c0,9.9-8.1,18-18,18H20c-9.9,0-18-8.1-18-18V20c0-9.9,8.1-18,18-18H108 M108,0
					H20C9,0,0,9,0,20v88c0,11,9,20,20,20h88c11,0,20-9,20-20V20C128,9,119,0,108,0L108,0z"/>
			</g>
			<path id="Контур_4" class="st1" d="M52.6,78.1H33L29,91c-0.1,0.5-0.5,0.8-1,0.8h-9.9c-0.6,0-0.8-0.3-0.6-0.9l16.9-48
				c0.2-0.5,0.3-1.1,0.5-1.7c0.2-1.1,0.3-2.3,0.3-3.4c0-0.3,0.2-0.5,0.5-0.6h13.6c0.4,0,0.6,0.1,0.7,0.4L69.2,91
				c0.2,0.6,0,0.8-0.5,0.8h-11c-0.4,0.1-0.8-0.2-0.8-0.6L52.6,78.1z M36.1,69.1h13.4c-0.3-1.1-0.7-3.4-1.2-4.8l-1.4-4.5
				c-0.5-1.6-1-3.2-1.5-4.8s-1-3.2-1.4-4.7s-0.8-2.9-1.1-4.1h-0.1c-0.5,2.3-1.1,4.6-1.8,6.8c-0.8,2.5-1.6,5.1-2.4,7.8
				S36.9,66.9,36.1,69.1z"/>
			<path id="Контур_5" class="st1" d="M100.2,73.5H83.6c0.2,1.7,0.8,3.4,1.7,4.8c0.9,1.4,2.3,2.5,3.8,3.2
				c2.2,1,4.5,1.5,6.9,1.5c1.6,0,3.2-0.1,4.7-0.4c1.7-0.3,3.4-0.8,5-1.5c0.3-0.2,0.4-0.1,0.4,0.4v8c0,0.2,0,0.4-0.1,0.6
				s-0.2,0.3-0.4,0.4c-1.8,0.8-3.6,1.4-5.5,1.8c-2.3,0.3-4.6,0.4-6.8,0.3c-3.5,0.1-6.9-0.5-10.1-1.9c-2.6-1.1-4.8-2.8-6.6-5
				c-1.7-2-2.9-4.3-3.7-6.8c-0.7-2.5-1.1-5.1-1.1-7.7c0-2.8,0.4-5.7,1.3-8.3c0.8-2.6,2.2-5.1,3.9-7.2c1.7-2.1,3.9-3.8,6.3-5
				c2.8-1.3,5.8-1.9,8.8-1.8c3,0,5.9,0.5,8.6,1.7c2.2,1,4.1,2.4,5.5,4.3c1.4,1.8,2.4,3.8,3.1,6c0.7,2.1,1,4.2,1,6.4
				c0,1.2,0,2.4-0.1,3.4c-0.1,0.6-0.2,1.2-0.3,1.8c0,0.4-0.4,0.7-0.8,0.7c-0.3,0-0.9,0-1.7,0.1s-2.3,0-3.5,0.1
				S101.6,73.5,100.2,73.5z M83.5,66.8h11.1c1.3,0,2.3,0,3,0c0.4,0,0.8,0,1.2-0.1v-0.5c0-1,0-2-0.2-3c-0.9-3-3.7-4.9-6.8-4.8
				c-2.9-0.2-5.7,1.4-7,4C84.2,63.8,83.8,65.3,83.5,66.8z"/>
		</g>
	</g>
</g>
</svg>
