<svg xmlns="http://www.w3.org/2000/svg" viewBox="0 0 362.73 512"><defs><style>.cls-1{fill:#264de4;}.cls-2{fill:#2965f1;}.cls-3{fill:#ebebeb;}.cls-4{fill:#fff;}</style></defs><g id="Layer_2" data-name="Layer 2"><g id="svg2"><polygon id="polygon2989" class="cls-1" points="181.15 512 33.01 470.88 0 100.62 362.73 100.62 329.69 470.82 181.15 512"/><polygon id="polygon2991" class="cls-2" points="301.4 447.25 329.64 130.89 181.37 130.89 181.37 480.52 301.4 447.25"/><polygon id="polygon2993" class="cls-3" points="75.68 268.22 79.75 313.63 181.37 313.63 181.37 268.22 75.68 268.22"/><polygon id="polygon2995" class="cls-3" points="67.5 176.31 71.63 221.72 181.37 221.72 181.37 176.31 181.21 176.31 67.5 176.31"/><polygon id="polygon2997" class="cls-3" points="181.37 386.15 181.17 386.21 130.59 372.55 127.36 336.33 102.79 336.33 81.78 336.33 88.14 407.63 181.16 433.46 181.37 433.4 181.37 386.15"/><path id="path2999" class="cls-4" d="M85.37,0h55V23h-32V46h32V69h-55Z"/><path id="path3001" class="cls-4" d="M151.37,0h55V20h-32v4h32V70h-55V49h32V45h-32Z"/><path id="path3003" class="cls-4" d="M217.37,0h55V20h-32v4h32V70h-55V49h32V45h-32Z"/><polygon id="polygon3005" class="cls-4" points="286.77 268.22 294.96 176.31 181.21 176.31 181.21 221.72 245.2 221.72 241.07 268.22 181.21 268.22 181.21 313.63 237.13 313.63 231.86 372.52 181.21 386.19 181.21 433.44 274.3 407.63 274.99 399.96 285.66 280.41 286.77 268.22"/></g></g></svg>