<?xml version="1.0" encoding="utf-8"?>
<!-- Generator: Adobe Illustrator 26.0.0, SVG Export Plug-In . SVG Version: 6.00 Build 0)  -->
<svg version="1.1" id="Layer_1" xmlns="http://www.w3.org/2000/svg" xmlns:xlink="http://www.w3.org/1999/xlink" x="0px" y="0px"
	 viewBox="0 0 128 128" style="enable-background:new 0 0 128 128;" xml:space="preserve">
<style type="text/css">
	.st0{fill:#330000;}
	.st1{fill:#FF9A00;}
</style>
<g id="Layer_2_00000137125902087427594830000004205889623860506250_">
	<g id="Слой_1">
		<g id="Illustrator">
			<g>
				<path class="st0" d="M20,127c-10.5,0-19-8.5-19-19V20C1,9.5,9.5,1,20,1h88c10.5,0,19,8.5,19,19v88c0,10.5-8.5,19-19,19H20z"/>
				<path class="st1" d="M108,2c9.9,0,18,8.1,18,18v88c0,9.9-8.1,18-18,18H20c-9.9,0-18-8.1-18-18V20c0-9.9,8.1-18,18-18H108 M108,0
					H20C9,0,0,9,0,20v88c0,11,9,20,20,20h88c11,0,20-9,20-20V20C128,9,119,0,108,0L108,0z"/>
			</g>
			<path id="Контур_30" class="st1" d="M62.4,77.9H42.9l-4,13c-0.1,0.5-0.5,0.8-1,0.8H28c-0.6,0-0.8-0.3-0.6-0.9l16.8-48.7
				c0.2-0.5,0.3-1.1,0.5-1.7c0.2-0.9,0.3-1.9,0.3-2.9c0-0.3,0.2-0.5,0.4-0.6H59c0.4,0,0.6,0.2,0.7,0.4l19.2,53.6
				c0.2,0.6,0,0.8-0.5,0.8h-11c-0.4,0-0.7-0.2-0.8-0.6L62.4,77.9z M45.8,68.9h14.3c-0.3-1.1-1.5-3.7-2-5.1s-1.1-2.5-1.6-4.1
				s-1-3.2-1.5-4.8s-1-3.2-1.4-4.7s-0.8-2.9-1.1-4.1h-0.1c-0.5,2.3-1.1,4.5-1.8,6.8c-0.8,2.5-1.6,5.1-2.4,7.8S46.6,66.7,45.8,68.9z"
				/>
			<path id="Контур_31" class="st1" d="M90.5,45.7c-1.7,0.1-3.4-0.6-4.7-1.9c-1.2-1.3-1.9-3.1-1.8-4.8
				c-0.1-1.8,0.6-3.5,1.9-4.7s3-1.9,4.7-1.8c1.8-0.1,3.5,0.6,4.8,1.8c1.2,1.3,1.8,3,1.7,4.7c0.1,1.8-0.6,3.5-1.8,4.8
				C94.1,45.1,92.3,45.8,90.5,45.7z M85,90.9V52.2c0-0.5,0.2-0.8,0.7-0.8h9.6c0.4,0,0.7,0.3,0.7,0.8v38.7c0,0.6-0.2,0.8-0.7,0.8
				h-9.5C85.3,91.7,85,91.4,85,90.9z"/>
		</g>
	</g>
</g>
</svg>
