<svg xmlns="http://www.w3.org/2000/svg" viewBox="0 0 128 128"><defs><style>.cls-1{fill:#300;}.cls-2{fill:#ff9a00;}</style></defs><g id="Layer_2" data-name="Layer 2"><g id="Слой_1" data-name="Слой 1"><g id="Illustrator"><rect id="Прямоугольник_16" data-name="Прямоугольник 16" class="cls-1" width="128" height="128" rx="20"/><path id="Контур_30" data-name="Контур 30" class="cls-2" d="M62.41,77.92H42.87l-4,13a1,1,0,0,1-1,.76H28c-.57,0-.76-.31-.59-.93L44.24,42.09c.17-.5.34-1.08.51-1.73a11.77,11.77,0,0,0,.34-2.89.54.54,0,0,1,.44-.6h13.6c.39,0,.62.15.68.43L79.05,90.89c.17.56,0,.84-.5.84h-11a.78.78,0,0,1-.84-.59Zm-16.6-9H60.12c-.34-1.13-1.5-3.73-1.95-5.14s-1.07-2.53-1.58-4.14-1-3.21-1.52-4.82-1-3.16-1.4-4.65-.8-2.86-1.14-4.1h-.09a65.85,65.85,0,0,1-1.77,6.76c-.79,2.54-1.6,5.14-2.41,7.79s-1.66,6.05-2.45,8.3Z"/><path id="Контур_31" data-name="Контур 31" class="cls-2" d="M90.49,45.7a6.16,6.16,0,0,1-4.65-1.86A6.71,6.71,0,0,1,84.06,39a6.24,6.24,0,0,1,1.9-4.7,6.55,6.55,0,0,1,4.7-1.81,6.27,6.27,0,0,1,4.77,1.81A6.55,6.55,0,0,1,97.17,39a6.63,6.63,0,0,1-1.82,4.82A6.51,6.51,0,0,1,90.49,45.7ZM85,90.89V52.22c0-.5.22-.76.67-.76H95.3c.45,0,.68.26.68.76V90.89c0,.56-.23.85-.68.85H85.78C85.27,91.74,85,91.45,85,90.89Z"/></g></g></g></svg>