<?xml version="1.0" encoding="utf-8"?>
<!-- Generator: Adobe Illustrator 26.0.0, SVG Export Plug-In . SVG Version: 6.00 Build 0)  -->
<svg version="1.1" id="Layer_1" xmlns="http://www.w3.org/2000/svg" xmlns:xlink="http://www.w3.org/1999/xlink" x="0px" y="0px"
	 viewBox="0 0 128 128" style="enable-background:new 0 0 128 128;" xml:space="preserve">
<style type="text/css">
	.st0{fill:#49021F;}
	.st1{fill:#FF3366;}
</style>
<g id="Layer_2_00000123430319971189005810000010998939238504764853_">
	<g id="Слой_1">
		<g id="InDesign">
			<g>
				<path class="st0" d="M20,127c-10.5,0-19-8.5-19-19V20C1,9.5,9.5,1,20,1h88c10.5,0,19,8.5,19,19v88c0,10.5-8.5,19-19,19H20z"/>
				<path class="st1" d="M108,2c9.9,0,18,8.1,18,18v88c0,9.9-8.1,18-18,18H20c-9.9,0-18-8.1-18-18V20c0-9.9,8.1-18,18-18H108 M108,0
					H20C9,0,0,9,0,20v88c0,11,9,20,20,20h88c11,0,20-9,20-20V20C128,9,119,0,108,0L108,0z"/>
			</g>
			<path id="Контур_34" class="st1" d="M45.5,37.9v53c0,0.6-0.2,0.8-0.8,0.8H35c-0.5,0-0.7-0.3-0.7-0.8v-53
				c0-0.5,0.3-0.7,0.8-0.7h9.7c0.3,0,0.6,0.2,0.7,0.5C45.5,37.8,45.5,37.8,45.5,37.9L45.5,37.9z"/>
			<path id="Контур_35" class="st1" d="M76.9,92.9c-3.9,0.1-7.7-0.7-11.3-2.4c-3.3-1.5-6.1-4-7.9-7.2c-2-3.7-3-7.8-2.9-12
				c0-3.9,1-7.7,2.9-11c2-3.4,4.9-6.3,8.4-8.1c4.1-2.1,8.7-3.2,13.3-3c0.3,0,0.6,0,1.1,0s1.4,0.1,2.1,0.1v-16c0-0.4,0.2-0.6,0.5-0.6
				h9.8c0.2,0,0.5,0.1,0.5,0.4l0,0v49.5c0,1,0,2,0.1,3.1s0.2,2.2,0.2,3c0,0.4-0.2,0.7-0.5,0.8c-2.6,1.2-5.3,2-8.1,2.6
				C82.3,92.6,79.6,92.9,76.9,92.9z M82.5,82.4V59.3c-0.6-0.1-1.2-0.2-1.9-0.3c-0.6,0-1.2,0-1.7,0c-2,0-4.1,0.4-5.9,1.3
				c-4,1.9-6.5,6.1-6.2,10.6c0,1.8,0.3,3.7,0.9,5.4C68.2,77.7,69,79,70,80s2.2,1.7,3.6,2.1c1.4,0.5,2.9,0.7,4.4,0.7
				c0.8,0,1.5,0,2.2-0.1C81,82.7,81.8,82.6,82.5,82.4L82.5,82.4z"/>
		</g>
	</g>
</g>
</svg>
