<svg xmlns="http://www.w3.org/2000/svg" viewBox="0 0 128 128"><defs><style>.cls-1{fill:#49021f;}.cls-2{fill:#f36;}</style></defs><g id="Layer_2" data-name="Layer 2"><g id="Слой_1" data-name="Слой 1"><g id="InDesign"><rect id="Прямоугольник_18" data-name="Прямоугольник 18" class="cls-1" width="128" height="128" rx="20"/><path id="Контур_34" data-name="Контур 34" class="cls-2" d="M45.47,37.87v53c0,.56-.25.85-.76.85H35c-.45,0-.68-.29-.68-.85v-53c0-.45.26-.68.77-.68h9.67a.61.61,0,0,1,.68.52.43.43,0,0,1,0,.16Z"/><path id="Контур_35" data-name="Контур 35" class="cls-2" d="M76.87,92.86A26.16,26.16,0,0,1,65.58,90.5a17.93,17.93,0,0,1-7.9-7.15,22.85,22.85,0,0,1-2.88-12A22.08,22.08,0,0,1,57.68,60.3a21.09,21.09,0,0,1,8.37-8.12,27,27,0,0,1,13.28-3c.28,0,.64,0,1.1,0s1.43.07,2.06.13v-16c0-.39.16-.59.5-.59H92.8a.44.44,0,0,1,.51.38V82.55q0,1.44.12,3.12c.09,1.13.16,2.15.22,3a.87.87,0,0,1-.51.84A38.32,38.32,0,0,1,85,92.1,45.11,45.11,0,0,1,76.87,92.86Zm5.62-10.48V59.29A16.47,16.47,0,0,0,80.64,59C80.06,59,79.48,59,78.9,59A13.07,13.07,0,0,0,73,60.3a10.88,10.88,0,0,0-6.17,10.57,14.93,14.93,0,0,0,.88,5.42A10.5,10.5,0,0,0,70.06,80a9.05,9.05,0,0,0,3.55,2.11A13.75,13.75,0,0,0,78,82.8c.79,0,1.52,0,2.2-.09a14.09,14.09,0,0,0,2.32-.33Z"/></g></g></g></svg>