<svg xmlns="http://www.w3.org/2000/svg" viewBox="0 0 128 128"><defs><style>.cls-1{fill:#001e36;}.cls-2{fill:#31a8ff;}</style></defs><g id="Layer_2" data-name="Layer 2"><g id="Слой_1" data-name="Слой 1"><g id="Photoshop"><rect id="Прямоугольник_22" data-name="Прямоугольник 22" class="cls-1" width="128" height="128" rx="20"/><path id="Контур_44" data-name="Контур 44" class="cls-2" d="M28.58,91v-54c0-.4.17-.59.51-.59.9,0,2,0,3.21-.05l4-.08,4.56-.08c1.61,0,3.2,0,4.78,0A31.84,31.84,0,0,1,56.49,37.7,18.78,18.78,0,0,1,63.55,42a16.63,16.63,0,0,1,3.85,6,19.8,19.8,0,0,1,1.18,6.81,18.71,18.71,0,0,1-3.13,11.16A17.63,17.63,0,0,1,57,72.33a33.67,33.67,0,0,1-11.84,2c-1.24,0-2.12,0-2.62,0s-1.27,0-2.28,0V90.89a.68.68,0,0,1-.58.76H29.17C28.78,91.65,28.58,91.43,28.58,91ZM40.25,46.49V64c.73.06,1.41.08,2,.08h2.79a20,20,0,0,0,6-.84,9.18,9.18,0,0,0,4.31-2.79A8.11,8.11,0,0,0,57.08,55a8.6,8.6,0,0,0-1.23-4.66,7.9,7.9,0,0,0-3.68-3A15.64,15.64,0,0,0,46,46.33c-1.35,0-2.55,0-3.59,0S40.64,46.44,40.25,46.49Z"/><path id="Контур_45" data-name="Контур 45" class="cls-2" d="M101.5,60.62a29.33,29.33,0,0,0-6.09-1.78,27.06,27.06,0,0,0-5.88-.68,10.94,10.94,0,0,0-3.17.39,2.79,2.79,0,0,0-1.65,1.05A2.63,2.63,0,0,0,84.29,61a2.17,2.17,0,0,0,.51,1.35,5.6,5.6,0,0,0,1.77,1.4,34.81,34.81,0,0,0,3.72,1.73,37.22,37.22,0,0,1,8.08,3.85,12.27,12.27,0,0,1,4.14,4.36,11.66,11.66,0,0,1,1.23,5.41,12.19,12.19,0,0,1-2,7,13.39,13.39,0,0,1-5.88,4.69,23.63,23.63,0,0,1-9.51,1.69,34.31,34.31,0,0,1-7.15-.68,25.85,25.85,0,0,1-5.71-1.69,1.07,1.07,0,0,1-.59-1V80a.49.49,0,0,1,.21-.46.41.41,0,0,1,.46,0,24.54,24.54,0,0,0,6.86,2.58,26.76,26.76,0,0,0,6.17.8,9.56,9.56,0,0,0,4.36-.76,2.38,2.38,0,0,0,1.4-2.2,2.78,2.78,0,0,0-1.27-2.11,21.09,21.09,0,0,0-5.16-2.46,31,31,0,0,1-7.48-3.8,12.85,12.85,0,0,1-4-4.44,11.64,11.64,0,0,1-1.22-5.37A12.08,12.08,0,0,1,75,55.46a12.93,12.93,0,0,1,5.5-4.83A17.49,17.49,0,0,1,89,48.5a53,53,0,0,1,7.13.1,24.48,24.48,0,0,1,5.59,1.86.76.76,0,0,1,.5.47,2.23,2.23,0,0,1,.09.63v8.55a.58.58,0,0,1-.26.51.57.57,0,0,1-.59,0Z"/></g></g></g></svg>