<?xml version="1.0" encoding="utf-8"?>
<!-- Generator: Adobe Illustrator 26.0.0, SVG Export Plug-In . SVG Version: 6.00 Build 0)  -->
<svg version="1.1" id="Layer_1" xmlns="http://www.w3.org/2000/svg" xmlns:xlink="http://www.w3.org/1999/xlink" x="0px" y="0px"
	 viewBox="0 0 128 128" style="enable-background:new 0 0 128 128;" xml:space="preserve">
<style type="text/css">
	.st0{fill:#001E36;}
	.st1{fill:#31A8FF;}
</style>
<g id="Layer_2_00000108309149103822957330000000516451113125302160_">
	<g id="Слой_1">
		<g id="Photoshop">
			<g>
				<path class="st0" d="M20,127c-10.5,0-19-8.5-19-19V20C1,9.5,9.5,1,20,1h88c10.5,0,19,8.5,19,19v88c0,10.5-8.5,19-19,19H20z"/>
				<path class="st1" d="M108,2c9.9,0,18,8.1,18,18v88c0,9.9-8.1,18-18,18H20c-9.9,0-18-8.1-18-18V20c0-9.9,8.1-18,18-18H108 M108,0
					H20C9,0,0,9,0,20v88c0,11,9,20,20,20h88c11,0,20-9,20-20V20C128,9,119,0,108,0L108,0z"/>
			</g>
			<path id="Контур_44" class="st1" d="M28.6,91V37c0-0.4,0.2-0.6,0.5-0.6c0.9,0,2,0,3.2,0l4-0.1l4.6-0.1c1.6,0,3.2,0,4.8,0
				c3.7-0.1,7.3,0.4,10.9,1.5c2.6,0.9,5.1,2.4,7.1,4.3c1.7,1.7,3,3.7,3.9,6c0.8,2.2,1.2,4.5,1.2,6.8c0.2,4-0.9,7.9-3.1,11.2
				c-2.1,2.9-5,5.2-8.5,6.4c-3.8,1.4-7.8,2-11.8,2c-1.2,0-2.1,0-2.6,0s-1.3,0-2.3,0V91c0,0.4-0.2,0.7-0.6,0.8H29.2
				C28.8,91.7,28.6,91.4,28.6,91z M40.2,46.5V64c0.7,0.1,1.4,0.1,2,0.1H45c2,0,4.1-0.3,6-0.8c1.7-0.5,3.2-1.5,4.3-2.8
				C56.5,59,57.1,57,57,55c0-1.6-0.4-3.3-1.2-4.7c-0.9-1.4-2.2-2.4-3.7-3c-2-0.7-4.1-1.1-6.2-1c-1.3,0-2.5,0-3.6,0
				S40.6,46.4,40.2,46.5z"/>
			<path id="Контур_45" class="st1" d="M101.5,60.6c-2-0.8-4-1.4-6.1-1.8c-1.9-0.4-3.9-0.7-5.9-0.7c-1.1,0-2.1,0.1-3.2,0.4
				c-0.7,0.1-1.2,0.5-1.7,1c-0.3,0.4-0.4,0.9-0.4,1.4s0.2,1,0.5,1.3c0.5,0.6,1.1,1.1,1.8,1.4c1.2,0.6,2.4,1.2,3.7,1.7
				c2.8,1,5.6,2.2,8.1,3.8c1.7,1.1,3.1,2.6,4.1,4.4c0.8,1.7,1.3,3.5,1.2,5.4c0.1,2.5-0.6,4.9-2,7c-1.5,2.1-3.5,3.7-5.9,4.7
				c-3,1.2-6.3,1.8-9.5,1.7c-2.4,0-4.8-0.2-7.2-0.7c-2-0.3-3.9-0.9-5.7-1.7c-0.4-0.2-0.6-0.6-0.6-1V80c0-0.2,0.1-0.4,0.2-0.5
				s0.3-0.1,0.5,0c2.1,1.2,4.5,2.1,6.9,2.6c2,0.5,4.1,0.8,6.2,0.8c1.5,0.1,3-0.2,4.4-0.8c0.9-0.4,1.4-1.3,1.4-2.2
				c-0.1-0.9-0.5-1.6-1.3-2.1c-1.6-1.1-3.3-1.9-5.2-2.5c-2.7-0.9-5.2-2.2-7.5-3.8c-1.7-1.1-3-2.7-4-4.4c-0.8-1.7-1.2-3.5-1.2-5.4
				c0-2.2,0.6-4.4,1.8-6.3c1.3-2.1,3.2-3.8,5.5-4.8c2.6-1.4,5.5-2.2,8.5-2.1c2.4-0.1,4.8-0.1,7.1,0.1c1.9,0.4,3.8,1,5.6,1.9
				c0.2,0.1,0.4,0.2,0.5,0.5c0.1,0.2,0.1,0.4,0.1,0.6v8.5c0,0.2-0.1,0.4-0.3,0.5C101.9,60.7,101.6,60.7,101.5,60.6L101.5,60.6z"/>
		</g>
	</g>
</g>
</svg>
