<svg xmlns="http://www.w3.org/2000/svg" viewBox="0 0 128 128"><defs><style>.cls-1{fill:#00005b;}.cls-2{fill:#99f;}</style></defs><g id="Layer_2" data-name="Layer 2"><g id="Слой_1" data-name="Слой 1"><g id="Premiere"><rect id="Прямоугольник_26" data-name="Прямоугольник 26" class="cls-1" width="128" height="128" rx="20"/><path id="Контур_52" data-name="Контур 52" class="cls-2" d="M30.18,90.59V36.65c0-.46.23-.69.46-.69H42.53c1.59,0,3.65.46,5.25.46A34.38,34.38,0,0,1,58.53,38a17.61,17.61,0,0,1,7.08,4.34,18,18,0,0,1,3.89,6,23.74,23.74,0,0,1,1.14,6.85,18.21,18.21,0,0,1-3.2,11.2A16.77,16.77,0,0,1,59,72.76,35,35,0,0,1,47.1,74.82H44.58c-.45,0-2.51-.46-3.65-.46V91.05a.62.62,0,0,1-.52.69H30.64C30.41,91.28,30.18,91.05,30.18,90.59ZM41.15,46v17.6c.69,0,2.75.46,3.43.46h2.75a16.9,16.9,0,0,0,5.94-.92,8.72,8.72,0,0,0,4.34-2.74,7.78,7.78,0,0,0,1.6-5.48,10.41,10.41,0,0,0-1.14-4.58,7.63,7.63,0,0,0-3.66-3,19.64,19.64,0,0,0-6.17-1.14H44.58A13.16,13.16,0,0,1,41.15,46Z"/><path id="Контур_53" data-name="Контур 53" class="cls-2" d="M78,49.68H87.1a1.52,1.52,0,0,1,1.14.91c.23.46.46.69.46,1.15a3.78,3.78,0,0,1,.23,1.6v1.83a18.78,18.78,0,0,1,5.71-4.58A12.1,12.1,0,0,1,102,48.77c.45,0,.68.22.68.45V59.74c0,.45-.23.68-.91.68a12.24,12.24,0,0,0-5,.46,13.82,13.82,0,0,0-4.34,1.37,10.43,10.43,0,0,0-3.43,2.06V91.05a.61.61,0,0,1-.52.69H78.64c-.46,0-.68-.23-.91-.69V57.91a24.7,24.7,0,0,0-.23-4.12c0-1.14-.23-2.28-.23-3.43,0-.22,0-.22.23-.45C77.5,49.68,77.73,49.68,78,49.68Z"/></g></g></g></svg>