<?xml version="1.0" encoding="utf-8"?>
<!-- Generator: Adobe Illustrator 22.0.1, SVG Export Plug-In . SVG Version: 6.00 Build 0)  -->
<svg version="1.1" id="Capa_1" xmlns="http://www.w3.org/2000/svg" xmlns:xlink="http://www.w3.org/1999/xlink" x="0px" y="0px"
	 viewBox="0 0 512 512" style="enable-background:new 0 0 512 512;" xml:space="preserve">
<style type="text/css">
	.st0{fill:#A1CCDD;}
</style>
<g>
	<path class="st0" d="M487.5,106.6h-28l2.4-4.1c3.7-6.4,1.5-14.7-4.9-18.4l-0.6-0.4l7.7-13.3c3.1-5.4,3.9-11.6,2.3-17.6
		c-1.6-6-5.5-11-10.8-14.1c-5.4-3.1-11.6-3.9-17.6-2.3c-6,1.6-11,5.5-14.1,10.8l-7.7,13.3l-0.6-0.4c-3.1-1.8-6.8-2.3-10.2-1.3
		c-3.5,0.9-6.4,3.2-8.2,6.3l-24,41.6H230.6c-4.1,0-7.5,3.4-7.5,7.5s3.4,7.5,7.5,7.5h133.7l-16.1,27.9H128.7
		c-10.4,0-18.8,8.4-18.8,18.8v246.5c0,10.4,8.4,18.8,18.8,18.8h321.6c10.4,0,18.8-8.4,18.8-18.8V168.3c0-10.4-8.4-18.8-18.8-18.8
		h-15.5l16.1-27.9h36.6c5.2,0,9.5,4.2,9.5,9.5v321c0,5.2-4.3,9.5-9.5,9.5h-463c-5.2,0-9.5-4.3-9.5-9.5V131c0-5.2,4.3-9.5,9.5-9.5
		h176.1c4.1,0,7.5-3.4,7.5-7.5s-3.4-7.5-7.5-7.5H24.5C11,106.6,0,117.5,0,131v321c0,13.5,11,24.5,24.5,24.5h463
		c13.5,0,24.5-11,24.5-24.5V131C512,117.5,501,106.6,487.5,106.6L487.5,106.6z M436.7,54.7c1.1-1.9,2.9-3.3,5-3.8
		c2.1-0.6,4.3-0.3,6.3,0.8c1.9,1.1,3.3,2.9,3.8,5s0.3,4.3-0.8,6.3l-7.7,13.3l-14.3-8.2L436.7,54.7z M409.2,73.8l5.8,3.4c0,0,0,0,0,0
		l27.3,15.7c0,0,0,0,0,0l5.8,3.4l-8.2,14.2c0,0,0,0,0,0l-24.4,42.2l-38.9-22.5L409.2,73.8z M309.5,291.4c-10.7-6.2-14.4-20-8.2-30.7
		l67.8-117.5l38.9,22.5l-67.8,117.5C334,293.9,320.3,297.6,309.5,291.4z M450.3,164.4c2.1,0,3.8,1.7,3.8,3.8v246.5
		c0,2.1-1.7,3.8-3.8,3.8H128.7c-2.1,0-3.8-1.7-3.8-3.8V168.3c0-2.1,1.7-3.8,3.8-3.8h210.9l-51.3,88.8c-9,15.7-5.5,35.2,7.6,46.8
		l-11.6,20.1c-2.1,3.6-0.8,8.2,2.7,10.2c1.2,0.7,2.5,1,3.7,1c2.6,0,5.1-1.3,6.5-3.8l11.6-20.1c3.9,1.3,7.8,1.9,11.8,1.9
		c13,0,25.6-6.7,32.5-18.7l72.9-126.3L450.3,164.4z"/>
	<path class="st0" d="M90.5,291.5c0-15.5-12.6-28.1-28.1-28.1S34.4,276,34.4,291.5s12.6,28.1,28.1,28.1S90.5,307,90.5,291.5z
		 M62.4,304.6c-7.2,0-13.1-5.9-13.1-13.1s5.9-13.1,13.1-13.1s13.1,5.9,13.1,13.1S69.7,304.6,62.4,304.6z"/>
	<path class="st0" d="M69.9,218.8v-37.3c0-4.1-3.4-7.5-7.5-7.5s-7.5,3.4-7.5,7.5v37.3c0,4.1,3.4,7.5,7.5,7.5S69.9,222.9,69.9,218.8z
		"/>
	<path class="st0" d="M54.9,364.2v37.3c0,4.1,3.4,7.5,7.5,7.5s7.5-3.4,7.5-7.5v-37.3c0-4.1-3.4-7.5-7.5-7.5S54.9,360.1,54.9,364.2z"
		/>
</g>
</svg>
