<?xml version="1.0" encoding="utf-8"?>
<!-- Generator: Adobe Illustrator 22.0.1, SVG Export Plug-In . SVG Version: 6.00 Build 0)  -->
<svg version="1.1" id="Capa_1" xmlns="http://www.w3.org/2000/svg" xmlns:xlink="http://www.w3.org/1999/xlink" x="0px" y="0px"
	 viewBox="0 0 512 512" style="enable-background:new 0 0 512 512;" xml:space="preserve">
<style type="text/css">
	.st0{fill:#A1CCDD;}
</style>
<g>
	<path class="st0" d="M305.7,173.9c-58.9,0-106.9,48-106.9,106.9s48,106.9,106.9,106.9s106.9-48,106.9-106.9S364.6,174,305.7,173.9
		L305.7,173.9z M305.7,372.8c-50.7,0-91.9-41.2-91.9-91.9S255,189,305.7,189s91.9,41.2,91.9,91.9S356.4,372.8,305.7,372.8z"/>
	<path class="st0" d="M305.7,240.2c-22.4,0-40.6,18.2-40.6,40.6s18.2,40.6,40.6,40.6c22.4,0,40.6-18.2,40.6-40.6
		S328.1,240.2,305.7,240.2L305.7,240.2z M305.7,306.5c-14.1,0-25.6-11.5-25.6-25.6s11.5-25.6,25.6-25.6c14.1,0,25.6,11.5,25.6,25.6
		S319.8,306.5,305.7,306.5z"/>
	<path class="st0" d="M471.4,140.8h-27.3c-10.5,0-19.9-6.3-23.8-16.1l-16.5-41.2C397.6,68,382.8,58,366.1,58H228.7
		C212,58,197.2,68,191,83.5l-16.5,41.2c-3.9,9.8-13.3,16.1-23.8,16.1h-36.3v-17.6c0-8.5-7-15.5-15.5-15.5H65.2
		c-8.5,0-15.5,7-15.5,15.5v17.6h-9.1C18.2,140.8,0,159,0,181.4v231.9C0,435.8,18.2,454,40.6,454h66.3h66.3h21.4
		c4.1,0,7.5-3.4,7.5-7.5s-3.4-7.5-7.5-7.5h-13.9v-17.6c0-8.5-7-15.5-15.5-15.5h-17.6V222.1h31.1c-8.3,17.9-12.9,37.8-12.9,58.8
		c0,77.2,62.8,140,140,140c69,0,126.5-50.2,138-116h11.1c13.3,0,24.1-10.8,24.1-24.1c0-13.3-10.8-24.1-24.1-24.1h-11.1
		c-2.1-12.2-5.8-23.8-10.9-34.7H497v47.5c0,4.1,3.4,7.5,7.5,7.5s7.5-3.4,7.5-7.5v-88.1C512,159,493.8,140.8,471.4,140.8L471.4,140.8
		z M64.7,123.2c0-0.3,0.2-0.5,0.5-0.5h33.7c0.3,0,0.5,0.2,0.5,0.5v17.6H64.7V123.2z M40.6,155.8h16.6h49.7h25.6v51.3H15v-25.6
		C15,167.3,26.5,155.8,40.6,155.8z M165.7,421.4V439h-51.3v-17.6c0-0.3,0.2-0.5,0.5-0.5h50.3C165.4,420.9,165.7,421.1,165.7,421.4z
		 M132.5,405.9h-17.6c-8.5,0-15.5,7-15.5,15.5V439H40.6C26.5,439,15,427.5,15,413.4V338h25.6c4.1,0,7.5-3.4,7.5-7.5
		s-3.4-7.5-7.5-7.5H15v-18.1h25.6c4.1,0,7.5-3.4,7.5-7.5s-3.4-7.5-7.5-7.5H15v-18.1h25.6c4.1,0,7.5-3.4,7.5-7.5s-3.4-7.5-7.5-7.5H15
		v-34.7h117.5V405.9z M305.7,405.9c-68.9,0-125-56.1-125-125s56.1-125,125-125c68.9,0,125,56.1,125,125S374.6,405.9,305.7,405.9z
		 M454.8,271.8c5,0,9.1,4.1,9.1,9.1c0,5-4.1,9.1-9.1,9.1h-9.4c0.2-3,0.3-6,0.3-9.1c0-3-0.1-6.1-0.3-9.1H454.8z M424.7,207.1
		c-24.7-39.7-68.8-66.3-119-66.3s-94.2,26.5-119,66.3h-39.2v-51.3h3.2c16.7,0,31.5-10,37.7-25.5l16.5-41.2
		c3.9-9.8,13.3-16.1,23.8-16.1h137.4c10.5,0,19.9,6.3,23.8,16.1l16.5,41.2c6.2,15.5,21,25.5,37.7,25.5h27.3
		c14.1,0,25.6,11.5,25.6,25.6v25.6L424.7,207.1L424.7,207.1z"/>
	<path class="st0" d="M504.5,292.1c-4.1,0-7.5,3.4-7.5,7.5v113.8c0,14.1-11.5,25.6-25.6,25.6H224.5c-4.1,0-7.5,3.4-7.5,7.5
		s3.4,7.5,7.5,7.5h246.8c22.4,0,40.6-18.2,40.6-40.6V299.6C512,295.5,508.6,292.1,504.5,292.1L504.5,292.1z"/>
	<path class="st0" d="M355.4,107.7h-116c-4.1,0-7.5,3.4-7.5,7.5s3.4,7.5,7.5,7.5h116c4.1,0,7.5-3.4,7.5-7.5S359.5,107.7,355.4,107.7
		z"/>
	<path class="st0" d="M471.4,420.9c4.1,0,7.5-3.4,7.5-7.5v-33.1c0-4.1-3.4-7.5-7.5-7.5h-33.1c-4.1,0-7.5,3.4-7.5,7.5v33.1
		c0,4.1,3.4,7.5,7.5,7.5H471.4z M445.7,387.8h18.1v18.1h-18.1V387.8z"/>
</g>
</svg>
