<svg xmlns="http://www.w3.org/2000/svg" viewBox="0 0 128 128"><defs><style>.cls-1{fill:#470137;}.cls-2{fill:#ff61f6;}</style></defs><g id="Layer_2" data-name="Layer 2"><g id="Слой_1" data-name="Слой 1"><g id="XD"><rect id="Прямоугольник_29" data-name="Прямоугольник 29" class="cls-1" width="128" height="128" rx="20"/><path id="Контур_58" data-name="Контур 58" class="cls-2" d="M67.86,38,52.13,63.3,69,90.71a.82.82,0,0,1,.08.63c-.05.2-.25.33-.59.38h-12a1.88,1.88,0,0,1-1.77-.84c-1.13-2.2-2.26-4.22-3.39-6.39S49,80.1,47.69,77.85,45.17,73.31,43.93,71h-.09c-1.13,2.26-2.3,4.51-3.51,6.77s-2.41,4.49-3.59,6.72S34.34,88.77,33.1,91a1.2,1.2,0,0,1-1.18.76H20.33a.35.35,0,0,1-.38-.31v0a.81.81,0,0,1,.13-.59L36.4,64.15,20.5,37.9c-.17-.22-.2-.41-.08-.55a.59.59,0,0,1,.5-.21H32.85a1.65,1.65,0,0,1,.76.13,1.6,1.6,0,0,1,.51.46c1,2.26,2.14,3.87,3.38,6.12s2.49,4.48,3.76,6.68S43.7,55,44.77,57.21h.09q1.68-3.47,3.42-6.76t3.55-6.64c1.22-2.23,2.38-3.8,3.51-6a1.31,1.31,0,0,1,.34-.55,1.14,1.14,0,0,1,.68-.13H67.44a.48.48,0,0,1,.58.36A.46.46,0,0,1,67.86,38Z"/><path id="Контур_59" data-name="Контур 59" class="cls-2" d="M91.27,93.52A26.17,26.17,0,0,1,80,91.15,18,18,0,0,1,72.07,84,22.92,22.92,0,0,1,69.2,72,22.12,22.12,0,0,1,72.07,61a21.11,21.11,0,0,1,8.38-8.12,27.1,27.1,0,0,1,13.28-3.05c.28,0,.65,0,1.1,0s1.41.08,2,.13V35A1.36,1.36,0,0,1,98,33.47h8.18A1.53,1.53,0,0,1,107.72,35V83.2c0,1,0,2,.13,3.13s.15,2.14.21,3a.8.8,0,0,1-.13.5.86.86,0,0,1-.38.35,39.4,39.4,0,0,1-8.16,2.54A46,46,0,0,1,91.27,93.52ZM96.66,83V59.94A12.68,12.68,0,0,0,95,59.69a16.9,16.9,0,0,0-1.74-.09A13.07,13.07,0,0,0,87.38,61a10.89,10.89,0,0,0-6.17,10.57,15.15,15.15,0,0,0,.88,5.42,10.37,10.37,0,0,0,2.37,3.72A9.05,9.05,0,0,0,88,82.77a13.75,13.75,0,0,0,4.36.68c.79,0,1.52,0,2.2-.09A10.7,10.7,0,0,0,96.66,83Z"/></g></g></g></svg>