<?xml version="1.0" encoding="utf-8"?>
<!-- Generator: Adobe Illustrator 26.0.0, SVG Export Plug-In . SVG Version: 6.00 Build 0)  -->
<svg version="1.1" id="Layer_1" xmlns="http://www.w3.org/2000/svg" xmlns:xlink="http://www.w3.org/1999/xlink" x="0px" y="0px"
	 viewBox="0 0 128 128" style="enable-background:new 0 0 128 128;" xml:space="preserve">
<style type="text/css">
	.st0{fill:#470137;}
	.st1{fill:#FF61F6;}
</style>
<g id="Layer_2_00000170957708345332218270000016323079454639842218_">
	<g id="Слой_1">
		<g id="XD">
			<g>
				<path class="st0" d="M20,127c-10.5,0-19-8.5-19-19V20C1,9.5,9.5,1,20,1h88c10.5,0,19,8.5,19,19v88c0,10.5-8.5,19-19,19H20z"/>
				<path class="st1" d="M108,2c9.9,0,18,8.1,18,18v88c0,9.9-8.1,18-18,18H20c-9.9,0-18-8.1-18-18V20c0-9.9,8.1-18,18-18H108 M108,0
					H20C9,0,0,9,0,20v88c0,11,9,20,20,20h88c11,0,20-9,20-20V20C128,9,119,0,108,0L108,0z"/>
			</g>
			<path id="Контур_58" class="st1" d="M67.9,38L52.1,63.3L69,90.7c0.1,0.2,0.1,0.4,0.1,0.6c-0.1,0.2-0.2,0.3-0.6,0.4h-12
				c-0.7,0.1-1.4-0.3-1.8-0.8c-1.1-2.2-2.3-4.2-3.4-6.4s-2.3-4.4-3.6-6.6s-2.5-4.5-3.8-6.8h-0.1c-1.1,2.3-2.3,4.5-3.5,6.8
				s-2.4,4.5-3.6,6.7s-2.4,4.3-3.6,6.5c-0.2,0.5-0.7,0.8-1.2,0.8H20.3c-0.2,0-0.4-0.1-0.4-0.3l0,0c0-0.2,0-0.4,0.1-0.6l16.3-26.7
				L20.5,37.9c-0.2-0.2-0.2-0.4-0.1-0.5s0.3-0.2,0.5-0.2h11.9c0.3,0,0.5,0,0.8,0.1c0.2,0.1,0.4,0.3,0.5,0.5c1,2.3,2.1,3.9,3.4,6.1
				s2.5,4.5,3.8,6.7s2.4,4.5,3.5,6.7h0.1c1.1-2.3,2.3-4.6,3.4-6.8s2.3-4.4,3.5-6.6c1.2-2.2,2.4-3.8,3.5-6c0.1-0.2,0.2-0.4,0.3-0.5
				c0.2-0.1,0.4-0.2,0.7-0.1h11.1c0.3-0.1,0.5,0.1,0.6,0.4l0,0C68.1,37.7,68,37.9,67.9,38z"/>
			<path id="Контур_59" class="st1" d="M91.3,93.5c-3.9,0.1-7.7-0.8-11.3-2.4c-3.3-1.5-6.1-4-7.9-7.2c-2-3.7-3-7.8-2.9-12
				c0-3.9,1-7.6,2.9-11c2-3.4,4.9-6.3,8.4-8.1c4.1-2.1,8.7-3.2,13.3-3c0.3,0,0.7,0,1.1,0s1.4,0.1,2,0.1V35c-0.1-0.7,0.4-1.4,1.2-1.5
				l0,0h8.2c0.8,0,1.5,0.7,1.5,1.5l0,0v48.2c0,1,0,2,0.1,3.1s0.2,2.1,0.2,3c0,0.2,0,0.4-0.1,0.5c-0.1,0.2-0.2,0.3-0.4,0.3
				c-2.6,1.1-5.4,2-8.2,2.5C96.7,93.2,94,93.5,91.3,93.5z M96.7,83V59.9c-0.5-0.1-1.1-0.2-1.7-0.2c-0.6-0.1-1.2-0.1-1.7-0.1
				c-2,0-4.1,0.5-5.9,1.4c-4,1.9-6.5,6.1-6.2,10.6c0,1.8,0.3,3.7,0.9,5.4c0.5,1.4,1.3,2.7,2.4,3.7c1,0.9,2.2,1.7,3.5,2.1
				c1.4,0.5,2.9,0.7,4.4,0.7c0.8,0,1.5,0,2.2-0.1S96,83.2,96.7,83z"/>
		</g>
	</g>
</g>
</svg>
